<?xml version="1.0" encoding="UTF-8"?><svg id="Layer_1" xmlns="http://www.w3.org/2000/svg" viewBox="0 0 260.75 434.35"><defs><style>.cls-1,.cls-2,.cls-3,.cls-4,.cls-5,.cls-6,.cls-7,.cls-8,.cls-9,.cls-10,.cls-11,.cls-12,.cls-13,.cls-14{stroke-miterlimit:10;}.cls-1,.cls-2,.cls-3,.cls-6,.cls-11{stroke:#000;}.cls-15{fill:#6a7578;}.cls-16{fill:#f33342;}.cls-17{fill:#f0465a;}.cls-18{fill:#ffec87;}.cls-19{fill:#e82a3f;}.cls-20{fill:#e4fdff;}.cls-21{fill:#fbcc8f;}.cls-22{fill:#fbcc91;}.cls-23{fill:#ff6e37;}.cls-24{fill:#744d38;}.cls-25{fill:#a92c37;}.cls-26{fill:#dc475e;}.cls-27{fill:#c9946c;}.cls-28{fill:#948382;}.cls-29{fill:#773524;}.cls-2{fill:#fdc774;}.cls-2,.cls-3{stroke-width:2px;}.cls-3,.cls-6,.cls-8,.cls-9{fill:#fff;}.cls-4{fill:#f9a046;stroke:#9b180b;stroke-width:.5px;}.cls-5{fill:#ff8623;}.cls-5,.cls-7{stroke:#9c2625;}.cls-7{fill:#fdd8b6;}.cls-8{stroke:#fff;}.cls-9{stroke:#bc2432;}.cls-10{fill:#c78166;stroke:#824c2c;}.cls-11{fill:#b1efde;}.cls-12{fill:#e11516;stroke:#8d2531;}.cls-13{fill:#fc4e5e;stroke:#773524;}.cls-14{fill:#fed5bb;stroke:#d21c29;stroke-width:3px;}.cls-30{fill:#e6bca3;opacity:.54;}.cls-31{fill:#fda6a3;opacity:.5;}</style></defs><path class="cls-12" d="M51.92,48.6c3.04-6.81,11.27-22.88,26.5-34.07C95.94,1.66,114.81,1.08,128.47,.66c12.24-.38,29.88-.92,48.79,9.67,6.81,3.82,23.93,14.77,32.81,35.33,5.06,11.71,5.85,22.88,6.73,35.33,.55,7.77,.5,15.6,.42,28.6-.08,12.85-.45,16.73,.42,24.39,.27,2.36,1.32,10.85,4.63,21.45,4.75,15.22,9.87,20.98,17.66,36.17,3.82,7.44,10.26,19.98,14.72,35.75,6.13,21.66,5.78,39.65,5.47,51.31-.42,15.66-.75,27.78-6.31,42.9-5.06,13.78-9.02,24.55-19.35,34.07-7.37,6.79-17.93,12.91-17.66,21.87,.06,1.96,.61,3.09,.84,7.57,.08,1.5,.39,8.56-.84,13.88-2.1,9.04-9.08,14.77-12.62,17.66-6.3,5.17-13.77,8.62-31.54,12.2-12.47,2.51-25.87,5.13-45.42,5.05-18.88-.08-32.44-.13-48.79-6.73-10.26-4.14-29.57-11.93-32.81-26.92-1.6-7.4,1.9-11.1-.84-20.61-2.53-8.77-7.83-13.7-12.2-18.51,0,0-9.76-10.75-22.29-36.17-11.4-23.14-9.6-46.05-7.99-66.45,1.04-13.17,2.58-34.73,13.88-56.36,2.34-4.49,5.23-9.21,11.36-21.03,7.98-15.38,11.96-23.07,14.3-29.44,5.81-15.84,5.21-29.3,4.21-51.73-.65-14.58-2.65-27.89,3.36-45,.31-.87,1.17-3.27,2.52-6.31Z"/><path class="cls-14" d="M65.44,75.78c4.68-11.48,12.06-18.3,19.82-25.31,7.88-7.12,14.51-11.05,27.75-18.91,10.04-5.95,13.41-7.12,17.38-7.32,2.54-.13,7.37,.03,20.43,7.01,7.92,4.24,15.65,8.37,24.7,16.47,10.18,9.1,17.77,15.89,21.35,27.75,3.32,11,1.4,20.41,.61,24.09-3.24,15.01-12.36,24.2-19.82,31.72-6.12,6.16-12.26,12.35-22.57,16.16-9.56,3.54-17.65,3.17-27.14,2.74-10.88-.49-18.93-.86-27.75-5.18-10.79-5.29-15.97-13.19-25.31-27.45-7.49-11.42-14.08-21.8-11.89-34.16,.51-2.89,1.33-4.9,2.44-7.62Z"/><path class="cls-10" d="M130.08,23.57c-13.66,4.15-23.97,9.72-30.8,14.03-16.47,10.4-24.94,21.59-26.89,24.19-7.9,10.57-9.33,17.41-9.68,19.3-.7,3.77-1.62,12.01,2.35,20.37,3.33,7.02,7.79,9.46,9.12,9.94,1.55,.56,3.97,1.85,5.91,.67,1.6-.98,2.25-3.2,1.86-5.01-.35-1.64-1.72-3.72-3.54-3.67-1.32,.03-2.71,1.17-2.7,2.17,0,.84,1.02,1.85,1.69,2.34,.39,.29,.7,.42,.71,.68,0,.45-.97,.9-1.58,.99-2.04,.27-4.07-3.07-4.63-4-3.46-5.7-2.44-12.51-2.34-13.1,1.57-9.67,9.26-15.88,15.76-21.13,4.83-3.9,4.92-2.96,13.13-8.81,9.5-6.77,15.59-12.47,17.51-14.29,10.76-10.24,13.52-16.04,14.88-20.07,.55-1.63,.89-3.02,1.1-3.97"/><path class="cls-6" d="M94.99,84.19c1.31-4.26,6.67-6.29,10.41-6.62,3.63-.33,6.4,.87,7.38,1.31,2.32,1.04,3.96,2.77,7.22,6.23,2,2.11,2.32,2.78,2.24,3.49-.22,1.99-3.54,3.09-5.48,3.74-6.5,2.16-12.11,.78-13.2,.5-2.99-.78-7.75-2.02-8.72-5.48-.38-1.37-.03-2.56,.15-3.16Z"/><path class="cls-11" d="M99.71,81.1c1.5-2.18,4.45-2.49,5.95-2.66,2.21-.24,5.83-.63,7.9,1.75,1.55,1.78,1.39,4.15,1.34,4.87-.05,.82-.18,2.69-1.59,4.12-1.76,1.78-4.36,1.66-5.96,1.58-1.33-.06-4.94-.24-7.06-2.99-.28-.37-1.85-2.41-1.34-4.87,.08-.4,.28-1.09,.76-1.79Z"/><path class="cls-1" d="M102.85,85.04c-.16-.26-1.09-1.82-.57-3.55,.77-2.55,3.99-3.08,4.26-3.12,.33-.05,3.66-.5,5.11,1.85,1.27,2.04,0,4.44-.14,4.68-.23,.41-1.11,1.88-2.98,2.41-1.82,.52-3.31-.23-3.69-.43-1.26-.66-1.87-1.64-1.99-1.85Z"/><circle class="cls-8" cx="105.78" cy="81" r="1.39"/><ellipse class="cls-8" cx="107.65" cy="86.87" rx=".7" ry=".35"/><path d="M117.81,82.63c.3-.37-2.31-4.23-6.69-5.89-.81-.31-5.35-2.03-9.36,0-3.1,1.57-4.27,4.56-7.49,4.55-.49,0-.89-.09-1.68-.27-4.02-.9-6.51-2.98-6.55-2.92-.06,.09,5.91,4.01,5.69,4.39-.23,.4-7.39-3.23-7.51-3.01-.11,.21,6.25,3.15,5.9,4.21-.37,1.15-8.37-.82-8.43-.54-.04,.21,4.29,2.05,9.52,1.08,1.13-.21,1.96-.49,2.52-.67,3.95-1.33,4.8-2.97,8.61-4.3,1.62-.57,2.44-.86,3.69-.91,.71-.03,2.56-.04,6.83,1.86,3.47,1.54,4.75,2.65,4.94,2.42Z"/><path class="cls-20" d="M94.83,79.26c.58-3.72,5.99-5.49,6.67-5.71,4.12-1.35,7.66-.21,8.73,.15,2.99,1.01,4.75,2.86,6.16,4.32,3.78,3.93,5.28,8.45,4.98,8.62-.29,.17-1.99-3.94-6.67-7.3-1.32-.94-3.1-2.18-5.75-2.7-.96-.19-3.73-.61-6.8,.53-4.06,1.51-5.89,4.73-6.94,4.1-.63-.38-.41-1.78-.37-2.02Z"/><path class="cls-20" d="M93.44,85.44c-.3,1.56,.22,2.83,.43,3.34,.86,2.05,2.51,3.1,3.17,3.51,1.5,.93,2.84,1.12,5.14,1.46,1.91,.28,4,.36,4.03,.17,.01-.08-.37-.2-1.88-.6-3.07-.8-3.44-.81-4.11-1.03-2.15-.68-4.58-2.53-5.37-4.95-.68-2.08,.06-3.98-.31-4.07-.29-.06-.88,1.07-1.09,2.16Z"/><path d="M94.53,83.28c-.47-.44-1.29-.26-3.22,.33-2.46,.75-6.1,1.87-6,2.24,.15,.54,7.55-1.75,8.13-.41,.54,1.24-5.13,4.87-4.89,5.22,.23,.34,5.36-3.24,6.21-2.33,.75,.8-2.23,4.69-1.83,4.99,.38,.28,3.01-2.96,3.57-2.58,.48,.32-1.07,3.02-.75,3.21,.28,.17,2.16-1.61,1.82-3.07-.12-.51-.41-.58-1.27-1.74-.51-.69-.96-1.29-1.25-1.95-.83-1.91,.21-3.22-.52-3.9Z"/><path class="cls-15" d="M93.62,78.25c-.12-.14,3.1-4.81,8.37-6.31,4.55-1.3,8.51,.36,9.47,.79,4.38,1.98,6.67,5.79,6.47,6-.18,.19-2.34-2.54-6.63-4.1-.71-.26-2.84-.98-5.68-1.1-1.39-.06-2.66-.11-4.26,.32-1.77,.47-3.03,1.28-5.23,2.7-1.85,1.19-2.45,1.78-2.5,1.72Z"/><path class="cls-6" d="M166.63,84.36c-1.31-4.26-6.67-6.29-10.41-6.62-3.63-.33-6.4,.87-7.38,1.31-2.32,1.04-3.96,2.77-7.22,6.23-2,2.11-2.32,2.78-2.24,3.49,.22,1.99,3.54,3.09,5.48,3.74,6.5,2.16,12.11,.78,13.2,.5,2.99-.78,7.75-2.02,8.72-5.48,.38-1.37,.03-2.56-.15-3.16Z"/><path class="cls-11" d="M161.9,81.27c-1.5-2.18-4.45-2.49-5.95-2.66-2.21-.24-5.83-.63-7.9,1.75-1.55,1.78-1.39,4.15-1.34,4.87,.05,.82,.18,2.69,1.59,4.12,1.76,1.78,4.36,1.66,5.96,1.58,1.33-.06,4.94-.24,7.06-2.99,.28-.37,1.85-2.41,1.34-4.87-.08-.4-.28-1.09-.76-1.79Z"/><path class="cls-1" d="M158.76,85.21c.16-.26,1.09-1.82,.57-3.55-.77-2.55-3.99-3.08-4.26-3.12-.33-.05-3.66-.5-5.11,1.85-1.27,2.04,0,4.44,.14,4.68,.23,.41,1.11,1.88,2.98,2.41,1.82,.52,3.31-.23,3.69-.43,1.26-.66,1.87-1.64,1.99-1.85Z"/><circle class="cls-8" cx="155.84" cy="81.17" r="1.39"/><ellipse class="cls-8" cx="153.97" cy="87.04" rx=".7" ry=".35"/><path d="M143.8,82.8c-.3-.37,2.31-4.23,6.69-5.89,.81-.31,5.35-2.03,9.36,0,3.1,1.57,4.27,4.56,7.49,4.55,.49,0,.89-.09,1.68-.27,4.02-.9,6.51-2.98,6.55-2.92,.06,.09-5.91,4.01-5.69,4.39,.23,.4,7.39-3.23,7.51-3.01,.11,.21-6.25,3.15-5.9,4.21,.37,1.15,8.37-.82,8.43-.54,.04,.21-4.29,2.05-9.52,1.08-1.13-.21-1.96-.49-2.52-.67-3.95-1.33-4.8-2.97-8.61-4.3-1.62-.57-2.44-.86-3.69-.91-.71-.03-2.56-.04-6.83,1.86-3.47,1.54-4.75,2.65-4.94,2.42Z"/><path class="cls-20" d="M166.79,79.43c-.58-3.72-5.99-5.49-6.67-5.71-4.12-1.35-7.66-.21-8.73,.15-2.98,1-4.73,2.84-6.16,4.32-3.84,3.98-5.37,8.56-5.07,8.74,.29,.17,2.02-4.01,6.76-7.41,1.32-.95,3.1-2.18,5.75-2.7,.96-.19,3.73-.61,6.8,.53,4.06,1.51,5.89,4.73,6.94,4.1,.63-.38,.41-1.78,.37-2.02Z"/><path class="cls-20" d="M168.17,85.61c.3,1.56-.22,2.83-.43,3.34-.86,2.05-2.51,3.1-3.17,3.51-1.5,.93-2.84,1.12-5.14,1.46-1.91,.28-4,.36-4.03,.17-.01-.08,.37-.2,1.88-.6,3.07-.8,3.44-.81,4.11-1.03,2.15-.68,4.58-2.53,5.37-4.95,.68-2.08-.06-3.98,.31-4.07,.29-.06,.88,1.07,1.09,2.16Z"/><path d="M167.09,83.45c.47-.44,1.29-.26,3.22,.33,2.46,.75,6.1,1.87,6,2.24-.15,.54-7.55-1.75-8.13-.41-.54,1.24,5.13,4.87,4.89,5.22-.23,.34-5.36-3.24-6.21-2.33-.75,.8,2.23,4.69,1.83,4.99-.38,.28-3.01-2.96-3.57-2.58-.48,.32,1.07,3.02,.75,3.21-.28,.17-2.16-1.61-1.82-3.07,.12-.51,.41-.58,1.27-1.74,.51-.69,.96-1.29,1.25-1.95,.83-1.91-.21-3.22,.52-3.9Z"/><path class="cls-15" d="M168,78.41c.12-.14-3.1-4.81-8.37-6.31-4.55-1.3-8.51,.36-9.47,.79-4.38,1.98-6.67,5.79-6.47,6,.18,.19,2.34-2.54,6.63-4.1,.71-.26,2.84-.98,5.68-1.1,1.39-.06,2.66-.11,4.26,.32,1.77,.47,3.03,1.28,5.23,2.7,1.85,1.19,2.45,1.78,2.5,1.72Z"/><path class="cls-24" d="M90.86,68.24c-.22-.34,3.19-3.8,8.13-5.54,3.64-1.28,6.7-1.13,7.83-1.04,1.58,.13,6.15,.51,9.33,3.86,1.06,1.12,1.98,2.58,1.74,2.83-.32,.33-2.2-1.84-5.42-3.2-4.2-1.78-8.3-1.18-9.93-.94-2.54,.37-4.6,1.16-6.94,2.06-3.22,1.24-4.61,2.17-4.74,1.96Z"/><path class="cls-24" d="M166.8,68.24c.22-.34-3.19-3.8-8.13-5.54-3.64-1.28-6.7-1.13-7.83-1.04-1.58,.13-6.15,.51-9.33,3.86-1.06,1.12-1.98,2.58-1.74,2.83,.32,.33,2.2-1.84,5.42-3.2,4.2-1.78,8.3-1.18,9.93-.94,2.54,.37,4.6,1.16,6.94,2.06,3.22,1.24,4.61,2.17,4.74,1.96Z"/><g><ellipse class="cls-24" cx="132.86" cy="109.21" rx=".96" ry="1.35" transform="translate(-1.34 216.77) rotate(-78.13)"/><ellipse class="cls-24" cx="128.5" cy="109.21" rx="1.35" ry=".96" transform="translate(-21.35 31.86) rotate(-13.06)"/></g><g><path class="cls-29" d="M115.11,116.31c.72-.73,2.07-.48,2.53,.13,.4,.54-.08,1.09,.27,1.6,.68,1,3.44,.22,3.73,.13,2.64-.77,2.79-2.05,4.26-2,1.95,.07,2.39,2.35,4.13,2.26,1.63-.08,1.8-2.12,3.59-2.4,1.53-.24,1.9,1.16,4.93,2.13,.84,.27,3.71,1.19,4.79,0,.58-.64,.26-1.47,.93-1.86,.6-.36,1.65-.16,2.13,.53,.67,.96-.04,2.3-.8,2.66-.33,.16-.57,.09-1.27-.01-1.75-.24-3.23-.45-4.07,.21-.32,.25-.39,.51-.68,1.19-.54,1.28-1.31,2.45-1.95,3.69-.99,1.89-2.25,4.31-4.62,5.17-2.41,.87-4.85-.27-5.81-.72-.77-.36-2.52-1.18-3.69-3.01-1.76-2.77-.52-5.22-2.16-6.14-.82-.46-2.28-.5-3.22-.38-.73,.09-1.22,.28-1.91,.04-.27-.09-1.03-.42-1.36-1.23-.03-.06-.49-1.25,.24-2Z"/><path class="cls-13" d="M122.54,118.63c.15-.3,1.19-2.39,3.19-2.66,1.57-.21,3.16,.77,3.99,1.73,.49,.57,.63,1.03,1.06,1.06,.75,.07,.94-1.27,2.13-2,1.34-.82,3.44-.56,4.79,.53,.93,.75,1.32,1.74,1.46,2.26,.64,2.28-.69,4.37-1.46,5.59-1.06,1.67-2.84,4.47-5.86,4.79-3.01,.32-5.22-2.03-7.45-4.39-2.21-2.35-2.38-3.9-2.4-4.53-.03-1.12,.33-1.99,.53-2.4Z"/><path class="cls-19" d="M122.54,120.45c.07,.01,.17,.04,.3,.06,2.9,.58,5.21,.72,6.08,.76,3.42,.17,5.13,.25,7.12-.32,1.49-.43,2.46-.98,2.72-.65,.31,.4-.57,1.84-1.81,2.65-.57,.38-1.26,.65-3.75,.84-2.5,.2-3.75,.29-4.85,.06-.97-.2-2.8-.73-4.72-2.39"/></g><circle class="cls-31" cx="99.78" cy="106.06" r="11.16"/><circle class="cls-31" cx="157.23" cy="106.23" r="11.16"/><circle class="cls-30" cx="114.7" cy="99.36" r="1.41"/><circle class="cls-30" cx="122.54" cy="97.95" r="1.41"/><circle class="cls-30" cx="130.08" cy="96.54" r="1.41"/><circle class="cls-30" cx="137.78" cy="97.95" r="1.41"/><circle class="cls-30" cx="146.07" cy="99.36" r="1.41"/><circle class="cls-30" cx="154" cy="102.17" r="1.41"/><circle class="cls-30" cx="162.77" cy="100.77" r="1.41"/><circle class="cls-30" cx="170.15" cy="99.36" r="1.41"/><circle class="cls-30" cx="105.78" cy="102.17" r="1.41"/><circle class="cls-30" cx="96.99" cy="100.77" r="1.41"/><circle class="cls-30" cx="88.62" cy="99.36" r="1.41"/><circle class="cls-30" cx="93.35" cy="106.06" r="1.41"/><circle class="cls-30" cx="101.19" cy="107.8" r="1.41"/><circle class="cls-30" cx="110.96" cy="107.47" r="1.41"/><circle class="cls-30" cx="120.51" cy="104.65" r="1.41"/><circle class="cls-30" cx="129.47" cy="103.58" r="1.41"/><circle class="cls-30" cx="137.78" cy="104.65" r="1.41"/><circle class="cls-30" cx="146.69" cy="106.39" r="1.41"/><circle class="cls-30" cx="165.59" cy="107.11" r="1.41"/><circle class="cls-30" cx="156.82" cy="108.87" r="1.41"/><path class="cls-9" d="M3.76,245.42c1.4-1.33,4.17-.55,5.17-.3,8.44,2.11,18.63-1.56,19.27-1.8,5.7-2.11,14.51-8.25,16.33-16.27,.38-1.66,.69-4.44,2.74-5.49,2-1.03,4.29,.73,6.3,.97,5.31,.64,10.99,1.32,16.59,0,1.48-.35,12.72-3.15,17.2-12.15,3.64-7.31,.56-14.19,4.86-16.53,1.78-.97,3.09-.22,6.07-.2,7.15,.04,12.65-4.2,15.99-6.77,12.27-9.46,12.91-25.98,15.99-25.49,.96,.15,1.09,1.78,2.2,4.77,2.08,5.54,5,8.9,9.56,14.15,6.69,7.7,10.04,11.55,14.74,12.55,5.67,1.2,10.89-1.22,13.02,1.75,.61,.85,.55,1.57,.74,3.23,0,0,.52,4.56,3.24,10.95,3.47,8.17,13.21,11.88,14.97,12.55,3.22,1.22,8.9,3.39,15.2,1.72,4.11-1.09,6.53-3.29,9.28-2.12,2.16,.92,2.38,3.4,3.84,5.58,5.1,7.57,7.66,11.36,10.73,13.74,5.63,4.36,12.23,4.96,19.02,5.58,6.23,.56,11.36-1.61,11.94-.2,.44,1.08-2.16,3.02-2.5,3.27-4.76,3.49-10.98,2.55-14.54,1.96-9.85-1.63-16.4-6.91-18.62-8.75-4.27-3.53-6.94-5.74-8.79-9.78-1.4-3.06-1.76-5.94-3.99-6.73-1.97-.69-3.93,.79-5.55,1.62-9.14,4.68-22.83-3.67-23.42-4.04-1.97-1.23-12.72-7.96-13.19-17.36-.14-2.76,.59-5.99-1.41-7.58-1.62-1.29-3.69-.44-5.94-.33-9.29,.48-18.37-11.81-22.04-16.78-3.89-5.26-6.19-10.13-8.5-9.61-.94,.21-1.41,1.2-1.98,2.34,0,0-.75,1.48-6.29,10.58-.95,1.56-4.6,7.56-11.05,9.78-6.7,2.31-11.26,2.1-11.26,2.1-1.36-.06-3.07-.27-4.4,.79-1.77,1.41-1.68,4.13-1.69,5.3,0,0-.06,6.97-5.71,15.32-5.12,7.57-14.92,9.4-17.01,9.73-5.42,.86-10.29,1.64-15.11-.5-1.13-.5-3.04-1.51-4.64-.74-1.87,.89-2,3.58-2.46,5.46-1.3,5.31-6.19,8.32-13.35,12.73-2.37,1.46-8.45,4.93-17.05,6.47-3.68,.66-12.97,2.33-14.99-1.21-.73-1.28-.54-3.27,.48-4.24Z"/><path class="cls-9" d="M39.22,247.09c3.52,.92,5.99,2.46,7.43,3.52,.94,.69,4.46,3.41,6.29,7.98,.73,1.82,.73,2.77,.46,3.53-.62,1.76-2.47,2.04-3.84,3.07-4.06,3.04-4.35,12.96-.15,16.89,2.49,2.33,5.07,1.15,7.06,3.84,1.74,2.34,1.36,5.35,1.07,7.37-.34,2.41-1.48,7.3-7.37,13.66-1.52,1.64-7.26,7.61-18.27,12.28-10.14,4.31-15.17,6.56-19.65,4.76-7.95-3.19-9.09-15.88-11.1-38.27-2.56-28.53,2.94-31.83,4.35-32.49,1.68-.78,1.95,.12,7.51-.32,4.75-.38,6.91-1.22,15.75-3.4,2.43-.6,6.01-1.46,10.43-2.42Z"/><path class="cls-5" d="M53.82,262.06c-2.34-.7-7.56,4.2-8.16,10.04-.55,5.37,3.03,9.2,3.76,9.98,2.12,2.27,5.9,4.72,7.52,3.6,1.03-.71,.87-2.66,.82-3.12-.25-2.08-1.57-2.4-2.6-4.4-1.79-3.47-1.09-8.95,.17-11.57,.14-.29,.54-1.07,.4-2.02-.16-1.12-1.06-2.26-1.92-2.51Z"/><path class="cls-26" d="M51.93,256.96c-1.49-.81-5.45,2.87-7.72,6.28-1.11,1.68-4.19,6.48-3.37,13.04,.24,1.93,1.23,7.24,5.7,11.03,3.78,3.21,9.51,4.86,10.77,3.34,.56-.67,.44-2.19-.27-2.78-.53-.44-1.29-.29-1.72-.24-2.11,.25-4.03-1.08-5.97-2.41-3.31-2.28-5.18-6.86-5.31-10.93-.14-4.22,1.53-10.26,5.38-12.31,.93-.5,2.7-1.13,3.1-2.65,.22-.83,.05-2.01-.59-2.36Z"/><path class="cls-25" d="M38.35,247.23c.25,1.04,.45,2.53-.36,3.41-.89,.98-2.25,.38-4.06,.94-2.17,.67-4.32,2.79-4.76,4.99-.74,3.71,3.62,6.56,2.34,8.73-.52,.89-1.29,.49-2.5,1.64-1.7,1.63-1.84,4.04-1.95,5.85-.14,2.41-.32,5.56,1.64,7.33,1.55,1.4,3.48,1.06,4.29,2.81,.25,.53,.23,.92,.23,2.03,0,3.78,0,5.67,.23,6.32,.83,2.36,3.75,3.68,5.69,4.06,3.46,.67,5.81-1.28,7.02,0,.71,.75,.12,1.66,.56,3.02,.91,2.78,4.35,4.93,6.24,4.13,1-.43,1.65-1.72,1.34-2.21-.35-.55-1.64,.41-2.88-.1-2.19-.88-1.05-4.99-3.46-6.53-.91-.58-1.19-.06-4.8-.38-2.76-.25-4.14-.37-5.28-1.06-2.05-1.23-3.77-3.95-3.36-6.34,.34-1.98,1.99-2.84,1.54-3.84-.37-.81-1.59-.49-3.07-1.15-3.39-1.51-4.1-6.31-4.13-6.53-.06-.47-.61-4.99,1.82-6.62,1.71-1.15,3.81-.15,4.22-1.06,.33-.73-.92-1.55-2.21-3.74-.97-1.67-2.27-3.88-1.63-5.95,.62-2.02,2.87-3.24,4.42-3.65,2.02-.53,2.82,.3,3.94-.48,1.67-1.17,2.06-4.54,.77-5.47-.57-.41-1.37-.28-1.87-.14Z"/><circle class="cls-25" cx="36.53" cy="258.22" r="2.38"/><circle class="cls-25" cx="34.15" cy="274.18" r="2.38"/><circle class="cls-25" cx="40.7" cy="288.63" r="2.38"/><path class="cls-28" d="M24.55,250.7c-1.45,.51-2.17,4.13-1.19,6.89,.59,1.66,1.33,1.67,1.79,3.49,.17,.66,.5,2.34-.09,4.08-.65,1.93-1.82,2.13-2.83,3.62-1.69,2.5-1.64,6.71-.09,9.37,1.9,3.25,5.36,3,6.11,6.31,.16,.72,0,.78,0,2.5-.01,2.59-.03,5.7,1.06,7.98,1.78,3.73,7.01,6.27,10.8,5.19,1.94-.55,3-1.9,4.25-1.3,1.3,.62,1,2.47,2.39,4.08,1.46,1.69,3.88,2.7,4.87,1.95,.34-.26,.59-.79,.44-1.11-.18-.42-.96-.08-1.86-.28-2.39-.52-4.1-4.37-4.29-4.82-.16-.36-.27-.69-.61-.92-.73-.5-1.69-.02-3.38,.5-.7,.22-1.98,.61-2.84,.71-2.51,.29-4.67-1.6-5.68-2.48-.75-.65-3.32-2.9-3.79-6.38-.4-2.98,1.07-4.38-.07-6.45-.26-.48-.96-1.12-2.37-2.41-2.31-2.12-2.49-1.96-3.11-2.69-1.77-2.1-2.36-5.83-1.08-8.36,1-1.98,2.22-1.38,3.18-3.4,1.52-3.19-.23-7.4-.41-7.8-.73-1.68-1.26-1.73-1.35-2.91-.2-2.46,1.99-4.25,1.35-5.1-.25-.33-.81-.38-1.2-.24Z"/><path class="cls-9" d="M220.36,247.09c-3.52,.92-5.99,2.46-7.43,3.52-.94,.69-4.46,3.41-6.29,7.98-.73,1.82-.73,2.77-.46,3.53,.62,1.76,2.47,2.04,3.84,3.07,4.06,3.04,4.35,12.96,.15,16.89-2.49,2.33-5.07,1.15-7.06,3.84-1.74,2.34-1.36,5.35-1.07,7.37,.34,2.41,1.48,7.3,7.37,13.66,1.52,1.64,7.26,7.61,18.27,12.28,10.14,4.31,15.17,6.56,19.65,4.76,7.95-3.19,9.09-15.88,11.1-38.27,2.56-28.53-2.94-31.83-4.35-32.49-1.68-.78-1.95,.12-7.51-.32-4.75-.38-6.91-1.22-15.75-3.4-2.43-.6-6.01-1.46-10.43-2.42Z"/><path class="cls-5" d="M205.76,262.06c2.34-.7,7.56,4.2,8.16,10.04,.55,5.37-3.03,9.2-3.76,9.98-2.12,2.27-5.9,4.72-7.52,3.6-1.03-.71-.87-2.66-.82-3.12,.25-2.08,1.57-2.4,2.6-4.4,1.79-3.47,1.09-8.95-.17-11.57-.14-.29-.54-1.07-.4-2.02,.16-1.12,1.06-2.26,1.92-2.51Z"/><path class="cls-26" d="M207.65,256.96c1.49-.81,5.45,2.87,7.72,6.28,1.11,1.68,4.19,6.48,3.37,13.04-.24,1.93-1.23,7.24-5.7,11.03-3.78,3.21-9.51,4.86-10.77,3.34-.56-.67-.44-2.19,.27-2.78,.53-.44,1.29-.29,1.72-.24,2.11,.25,4.03-1.08,5.97-2.41,3.31-2.28,5.18-6.86,5.31-10.93,.14-4.22-1.53-10.26-5.38-12.31-.93-.5-2.7-1.13-3.1-2.65-.22-.83-.05-2.01,.59-2.36Z"/><path class="cls-25" d="M221.23,247.23c-.25,1.04-.45,2.53,.36,3.41,.89,.98,2.25,.38,4.06,.94,2.17,.67,4.32,2.79,4.76,4.99,.74,3.71-3.62,6.56-2.34,8.73,.52,.89,1.29,.49,2.5,1.64,1.7,1.63,1.84,4.04,1.95,5.85,.14,2.41,.32,5.56-1.64,7.33-1.55,1.4-3.48,1.06-4.29,2.81-.25,.53-.23,.92-.23,2.03,0,3.78,0,5.67-.23,6.32-.83,2.36-3.75,3.68-5.69,4.06-3.46,.67-5.81-1.28-7.02,0-.71,.75-.12,1.66-.56,3.02-.91,2.78-4.35,4.93-6.24,4.13-1-.43-1.65-1.72-1.34-2.21,.35-.55,1.64,.41,2.88-.1,2.19-.88,1.05-4.99,3.46-6.53,.91-.58,1.19-.06,4.8-.38,2.76-.25,4.14-.37,5.28-1.06,2.05-1.23,3.77-3.95,3.36-6.34-.34-1.98-1.99-2.84-1.54-3.84,.37-.81,1.59-.49,3.07-1.15,3.39-1.51,4.1-6.31,4.13-6.53,.06-.47,.61-4.99-1.82-6.62-1.71-1.15-3.81-.15-4.22-1.06-.33-.73,.92-1.55,2.21-3.74,.97-1.67,2.27-3.88,1.63-5.95-.62-2.02-2.87-3.24-4.42-3.65-2.02-.53-2.82,.3-3.94-.48-1.67-1.17-2.06-4.54-.77-5.47,.57-.41,1.37-.28,1.87-.14Z"/><circle class="cls-25" cx="223.05" cy="258.22" r="2.38"/><circle class="cls-25" cx="225.43" cy="274.18" r="2.38"/><circle class="cls-25" cx="218.88" cy="288.63" r="2.38"/><path class="cls-28" d="M235.03,250.7c1.45,.51,2.17,4.13,1.19,6.89-.59,1.66-1.33,1.67-1.79,3.49-.17,.66-.5,2.34,.09,4.08,.65,1.93,1.82,2.13,2.83,3.62,1.69,2.5,1.64,6.71,.09,9.37-1.9,3.25-5.36,3-6.11,6.31-.16,.72,0,.78,0,2.5,.01,2.59,.03,5.7-1.06,7.98-1.78,3.73-7.01,6.27-10.8,5.19-1.94-.55-3-1.9-4.25-1.3-1.3,.62-1,2.47-2.39,4.08-1.46,1.69-3.88,2.7-4.87,1.95-.34-.26-.59-.79-.44-1.11,.18-.42,.96-.08,1.86-.28,2.39-.52,4.1-4.37,4.29-4.82,.16-.36,.27-.69,.61-.92,.73-.5,1.69-.02,3.38,.5,.7,.22,1.98,.61,2.84,.71,2.51,.29,4.67-1.6,5.68-2.48,.75-.65,3.32-2.9,3.79-6.38,.4-2.98-1.07-4.38,.07-6.45,.26-.48,.96-1.12,2.37-2.41,2.31-2.12,2.49-1.96,3.11-2.69,1.77-2.1,2.36-5.83,1.08-8.36-1-1.98-2.22-1.38-3.18-3.4-1.52-3.19,.23-7.4,.41-7.8,.73-1.68,1.26-1.73,1.35-2.91,.2-2.46-1.99-4.25-1.35-5.1,.25-.33,.81-.38,1.2-.24Z"/><path class="cls-27" d="M86.87,46.67c.5,1.09,9.95-1.9,16.76-4.86,.35-.15,1.53-.67,3.06-1.4,2.16-1.04,6.51-3.22,11.78-6.68,.47-.31,2.43-1.6,4.95-3.46,4.53-3.35,7.3-5.39,6.99-6.04-.48-.99-8.14,1.42-14.63,4.27-5.51,2.42-10.12,5.35-19.11,11.1-9.67,6.19-9.9,6.83-9.79,7.07Z"/><path class="cls-10" d="M86.87,46.67c-.53,.3-1.28,.77-5.78,5.26-4.82,4.81-7.23,7.21-6.98,7.65,1.23,2.21,24.65-8.91,30.91-11.88,1.34-.64,4.84-2.24,9.09-4.96,4.04-2.58,6.06-3.86,8.15-5.78,5.64-5.17,8.99-12.07,8.16-12.73-1.04-.83-7.32,9-20.68,15.72-4.99,2.51-7.59,3.82-11.64,4.52-4.85,.85-7.46,.07-11.22,2.2Z"/><path class="cls-27" d="M81.33,57.82c-3.34,.59-5.1,.24-7.23,1.77-1.06,.76-1.57,1.53-3.79,5.49-2.74,4.89-4.1,7.34-3.86,7.67,1.25,1.68,9.8-4.11,26.69-11.03,8.11-3.32,9.44-3.34,13.31-5.81,6.02-3.85,9.8-8.27,14.6-13.98,5.99-7.12,10.04-13.54,9.75-13.76-.29-.22-4.12,6.43-12.24,12.5-4.98,3.73-9.85,5.98-14.54,8.16-3.97,1.84-2.86,1.04-12.97,5.31-6.74,2.85-7.43,3.28-9.73,3.69Z"/><path class="cls-10" d="M64.27,99.64c1.46,.08,1.41-15.44,10.12-22.34,2.9-2.3,5.6-3.77,5.6-3.77,3.75-2.05,5.48-2.12,9.24-4.31,.9-.52,1.03-.65,4.95-3.46,8.11-5.81,9.29-6.51,9.13-6.85-.18-.4-2.11-.2-16.78,5.09-17.57,6.33-18.99,7.55-20.07,8.74-8.56,9.48-3.72,26.82-2.19,26.91Z"/><path class="cls-10" d="M130.82,23.89c13.66,4.15,23.97,9.72,30.8,14.03,16.47,10.4,24.94,21.59,26.89,24.19,7.9,10.57,9.33,17.41,9.68,19.3,.7,3.77,1.62,12.01-2.35,20.37-3.33,7.02-7.79,9.46-9.12,9.94-1.55,.56-3.97,1.85-5.91,.67-1.6-.98-2.25-3.2-1.86-5.01,.35-1.64,1.72-3.72,3.54-3.67,1.32,.03,2.71,1.17,2.7,2.17,0,.84-1.02,1.85-1.69,2.34-.39,.29-.7,.42-.71,.68,0,.45,.97,.9,1.58,.99,2.04,.27,4.07-3.07,4.63-4,3.46-5.7,2.44-12.51,2.34-13.1-1.57-9.67-9.26-15.88-15.76-21.13-4.83-3.9-4.92-2.96-13.13-8.81-9.5-6.77-15.59-12.47-17.51-14.29-10.76-10.24-13.52-16.04-14.88-20.07-.55-1.63-.89-3.02-1.1-3.97"/><path class="cls-27" d="M174.03,46.99c-.5,1.09-9.95-1.9-16.76-4.86-.35-.15-1.53-.67-3.06-1.4-2.16-1.04-6.51-3.22-11.78-6.68-.47-.31-2.43-1.6-4.95-3.46-4.53-3.35-7.3-5.39-6.99-6.04,.48-.99,8.14,1.42,14.63,4.27,5.51,2.42,10.12,5.35,19.11,11.1,9.67,6.19,9.9,6.83,9.79,7.07Z"/><path class="cls-10" d="M174.03,46.99c.53,.3,1.28,.77,5.78,5.26,4.82,4.81,7.23,7.21,6.98,7.65-1.23,2.21-24.65-8.91-30.91-11.88-1.34-.64-4.84-2.24-9.09-4.96-4.04-2.58-6.06-3.86-8.15-5.78-5.64-5.17-8.99-12.07-8.16-12.73,1.04-.83,7.32,9,20.68,15.72,4.99,2.51,7.59,3.82,11.64,4.52,4.85,.85,7.46,.07,11.22,2.2Z"/><path class="cls-27" d="M179.57,58.13c3.34,.59,5.1,.24,7.23,1.77,1.06,.76,1.57,1.53,3.79,5.49,2.74,4.89,4.1,7.34,3.86,7.67-1.25,1.68-9.8-4.11-26.69-11.03-8.11-3.32-9.44-3.34-13.31-5.81-6.02-3.85-9.8-8.27-14.6-13.98-5.99-7.12-10.04-13.54-9.75-13.76,.29-.22,4.12,6.43,12.24,12.5,4.98,3.73,9.85,5.98,14.54,8.16,3.97,1.84,2.86,1.04,12.97,5.31,6.74,2.85,7.43,3.28,9.73,3.69Z"/><path class="cls-10" d="M196.63,99.96c-1.46,.08-1.41-15.44-10.12-22.34-2.9-2.3-5.6-3.77-5.6-3.77-3.75-2.05-5.48-2.12-9.24-4.31-.9-.52-1.03-.65-4.95-3.46-8.11-5.81-9.29-6.51-9.13-6.85,.18-.4,2.11-.2,16.78,5.09,17.57,6.33,18.99,7.55,20.07,8.74,8.56,9.48,3.72,26.82,2.19,26.91Z"/><path class="cls-17" d="M87.11,32.78c.85,.97-9.21,7.82-17.17,21.14-2.67,4.46-7.48,12.7-8.75,24.25-1.32,12.05,1.92,21.32,3.89,26.74,2.65,7.32,8.29,18.97,20.08,29.22,0,0,13.52,11.76,30.45,15.86,3.75,.91,7.5,1.38,7.5,1.38,0,0,4.69,.59,9.61,.51,5.27-.08,14.81-1.06,23.69-4.38,18.71-6.98,29.07-22.26,33.36-28.6,6.04-8.92,12.87-19,13.28-33.27,.65-22.84-15.58-41.04-18.14-43.84-4.16-4.54-9.67-9.24-9.07-9.95,.58-.68,6.54,2.67,11.34,6.53,8.92,7.18,13.26,15.66,14.9,19.28,5.09,11.23,4.79,21.09,4.53,27.05-.14,3.25-1.04,19.07-11.66,36.06-3.33,5.33-10.84,17.03-25.59,25.49-3.26,1.87-11.03,6.24-22.03,8.08-5.75,.97-10.62,.95-13.93,.93-8.85-.04-15.5-1.24-17.17-1.55-4.89-.92-14.36-2.79-23.97-8.39-13.39-7.8-19.9-18.7-23.97-25.49-3.75-6.27-9.6-16.29-11.01-30.47-.28-2.84-2.74-31.89,16.84-49.12,5.68-5,12.31-8.2,12.96-7.46Z"/><path class="cls-4" d="M7.82,236.43c.71-1.22,2.35-4.02,5.76-5.29,.36-.13,5.82-2.06,8.69,1.04,1.17,1.27,1.66,3.18,1.39,4.87-.09,.58-.41,2.55-2.09,3.48-1.4,.78-3.53,.69-4.1-.33-.5-.89,.3-2.27,.33-2.33,.59-.98,1.32-.97,1.55-1.77,.2-.68-.08-1.53-.55-2-1.37-1.35-4.68,.15-5.32,.44-3.26,1.48-5.07,4.26-5.32,4.66-1.34,2.11-1.89,3.52-2.11,3.44-.31-.11,.07-3.29,1.77-6.21Z"/><path class="cls-4" d="M6.89,228.77c.98-1.53,3.26-5.05,9.17-7.96,.62-.3,10.12-4.88,16.21-3.31,2.48,.64,3.88,2.24,3.82,4.01-.02,.61-.08,2.66-2.91,4.39-2.37,1.44-6.28,2.42-7.61,1.72-1.16-.61-.05-2.34,0-2.41,.82-1.23,2.16-1.59,2.38-2.48,.19-.76-.55-1.44-1.54-1.65-2.86-.62-8.53,2.47-9.64,3.07-5.6,3.04-8.19,6.63-8.54,7.14-1.9,2.7-2.55,4.33-2.96,4.37-.59,.05-.74-3.21,1.63-6.88Z"/><path class="cls-4" d="M19.63,216.61c2.32-.59,7.68-1.95,14.45-8.16,.71-.65,11.47-10.68,13.21-19.02,.71-3.4-.31-5.85-2.37-6.54-.7-.23-3.1-1.03-6.73,1.8-3.03,2.37-6.42,6.88-6.39,8.86,.03,1.72,2.65,1.06,2.77,1.03,1.89-.5,3.08-2.04,4.23-1.94,.98,.09,1.33,1.31,1,2.65-.95,3.87-7.78,9.7-9.12,10.85-6.74,5.75-12.36,7.49-13.14,7.72-4.2,1.24-6.44,1.36-6.72,1.87-.4,.73,3.25,2.3,8.83,.89Z"/><path class="cls-4" d="M13.87,208.45c-.41-.51,3.92-2.68,6.21-8.19,1.64-3.93,1.04-6.69,3.39-8.19,1.35-.86,3.43-1.16,4.24-.28,1.49,1.63-1.57,7.17-4.8,10.73-3.81,4.2-8.61,6.47-9.04,5.93Z"/><path class="cls-4" d="M72.61,216.31c-.86,.31-2.84,1.03-5.06,.25-.23-.08-3.75-1.38-3.9-4.12-.06-1.12,.49-2.27,1.32-3,.29-.25,1.26-1.1,2.48-.87,1.02,.19,2.04,1.11,1.91,1.87-.12,.65-1.09,1.01-1.13,1.02-.7,.24-1.06-.06-1.51,.24-.38,.26-.59,.8-.55,1.22,.12,1.24,2.39,1.86,2.84,1.98,2.24,.62,4.29-.02,4.58-.12,1.54-.5,2.4-.97,2.47-.84,.11,.18-1.4,1.61-3.46,2.36Z"/><path class="cls-4" d="M77.56,209.3c-.01-.91-.04-3.02-1.56-4.82-.16-.19-2.62-3.02-5.23-2.18-1.07,.34-1.95,1.26-2.34,2.3-.13,.36-.58,1.57,.07,2.63,.54,.88,1.77,1.52,2.42,1.12,.57-.34,.56-1.38,.56-1.42-.02-.74-.43-.97-.31-1.5,.11-.45,.53-.84,.95-.95,1.2-.32,2.59,1.58,2.86,1.95,1.37,1.87,1.5,4.02,1.52,4.32,.08,1.62-.06,2.59,.09,2.61,.21,.04,1.01-1.88,.98-4.07Z"/><path class="cls-4" d="M80.1,208.28c.22-1.7,.14-3,.09-3.52-.25-2.96-1.28-5.06-1.85-6.21-1.12-2.24-1.86-3.73-3.62-4.82-.63-.39-2.47-1.54-4.73-1.02-1.79,.41-2.82,1.64-3.15,2.04-.17,.2-1.72,2.17-1.34,4.79,.26,1.77,1.33,3.4,1.81,3.28,.41-.1,0-1.42,.65-3.52,.29-.94,.81-2.54,2.32-3.52,.42-.27,1.18-.94,2.02-.73,2.3,.57,4.32,5.11,4.72,5.99,1.99,4.47,1.62,8.26,1.56,8.79-.31,2.75-.79,4.47-.58,4.54,.28,.08,1.66-2.72,2.11-6.07Z"/><path class="cls-4" d="M69.51,219.3c-1.71,0-3-.26-3.5-.37-2.9-.64-4.85-1.93-5.91-2.66-2.07-1.4-3.45-2.34-4.3-4.22-.3-.67-1.2-2.65-.39-4.82,.64-1.72,2-2.58,2.44-2.86,.22-.14,2.38-1.42,4.92-.7,1.72,.49,3.19,1.77,3.01,2.22-.16,.39-1.41-.19-3.58,.18-.97,.17-2.62,.47-3.8,1.83-.33,.38-1.08,1.05-.99,1.91,.26,2.36,4.49,4.96,5.32,5.46,4.17,2.56,7.97,2.69,8.51,2.7,2.76,.06,4.54-.2,4.57,.03,.05,.29-2.92,1.29-6.3,1.29Z"/><circle class="cls-18" cx="10.78" cy="242.65" r="2.33"/><circle class="cls-18" cx="29.44" cy="237.98" r="2.33"/><circle class="cls-18" cx="40.7" cy="226.41" r="2.33"/><circle class="cls-18" cx="54.41" cy="219.3" r="2.33"/><circle class="cls-18" cx="77.56" cy="217.18" r="2.33"/><circle class="cls-18" cx="85.68" cy="204.29" r="2.33"/><circle class="cls-18" cx="97.99" cy="190.23" r="2.33"/><circle class="cls-18" cx="114.7" cy="182.61" r="2.33"/><circle class="cls-18" cx="122.54" cy="168.15" r="2.33"/><circle class="cls-18" cx="137.55" cy="168.15" r="2.33"/><circle class="cls-18" cx="146.66" cy="180.27" r="2.33"/><circle class="cls-18" cx="160.82" cy="190.23" r="2.33"/><circle class="cls-18" cx="176.2" cy="206.08" r="2.33"/><circle class="cls-18" cx="187.39" cy="217.18" r="2.33"/><circle class="cls-18" cx="207.48" cy="219.3" r="2.33"/><circle class="cls-18" cx="220.67" cy="227.86" r="2.33"/><circle class="cls-18" cx="232.58" cy="240.31" r="2.33"/><circle class="cls-18" cx="251.98" cy="242.65" r="2.33"/><path class="cls-4" d="M253.68,235.19c-.71-1.22-2.35-4.02-5.76-5.29-.36-.13-5.82-2.06-8.69,1.04-1.17,1.27-1.66,3.18-1.39,4.87,.09,.58,.41,2.55,2.09,3.48,1.4,.78,3.53,.69,4.1-.33,.5-.89-.3-2.27-.33-2.33-.59-.98-1.32-.97-1.55-1.77-.2-.68,.08-1.53,.55-2,1.37-1.35,4.68,.15,5.32,.44,3.26,1.48,5.07,4.26,5.32,4.66,1.34,2.11,1.89,3.52,2.11,3.44,.31-.11-.07-3.29-1.77-6.21Z"/><path class="cls-4" d="M254.6,227.53c-.98-1.53-3.26-5.05-9.17-7.96-.62-.3-10.12-4.88-16.21-3.31-2.48,.64-3.88,2.24-3.82,4.01,.02,.61,.08,2.66,2.91,4.39,2.37,1.44,6.28,2.42,7.61,1.72,1.16-.61,.05-2.34,0-2.41-.82-1.23-2.16-1.59-2.38-2.48-.19-.76,.55-1.44,1.54-1.65,2.86-.62,8.53,2.47,9.64,3.07,5.6,3.04,8.19,6.63,8.54,7.14,1.9,2.7,2.55,4.33,2.96,4.37,.59,.05,.74-3.21-1.63-6.88Z"/><path class="cls-4" d="M241.86,215.36c-2.32-.59-7.68-1.95-14.45-8.16-.71-.65-11.47-10.68-13.21-19.02-.71-3.4,.31-5.85,2.37-6.54,.7-.23,3.1-1.03,6.73,1.8,3.03,2.37,6.42,6.88,6.39,8.86-.03,1.72-2.65,1.06-2.77,1.03-1.89-.5-3.08-2.04-4.23-1.94-.98,.09-1.33,1.31-1,2.65,.95,3.87,7.78,9.7,9.12,10.85,6.74,5.75,12.36,7.49,13.14,7.72,4.2,1.24,6.44,1.36,6.72,1.87,.4,.73-3.25,2.3-8.83,.89Z"/><path class="cls-4" d="M247.63,207.2c.41-.51-3.92-2.68-6.21-8.19-1.64-3.93-1.04-6.69-3.39-8.19-1.35-.86-3.43-1.16-4.24-.28-1.49,1.63,1.57,7.17,4.8,10.73,3.81,4.2,8.61,6.47,9.04,5.93Z"/><path class="cls-4" d="M65.87,178.76c-.91-1.08-3-3.56-6.57-4.23-.37-.07-6.08-1.04-8.39,2.51-.94,1.45-1.1,3.41-.54,5.03,.19,.55,.84,2.44,2.65,3.07,1.51,.52,3.59,.08,3.99-1.03,.34-.97-.68-2.19-.73-2.24-.74-.86-1.46-.73-1.83-1.48-.31-.64-.18-1.52,.21-2.06,1.12-1.56,4.63-.65,5.32-.47,3.47,.9,5.73,3.33,6.04,3.68,1.68,1.85,2.46,3.14,2.66,3.03,.28-.16-.63-3.23-2.81-5.82Z"/><path class="cls-4" d="M65.48,171.05c-1.23-1.34-4.07-4.42-10.39-6.28-.66-.19-10.81-3.08-16.53-.5-2.34,1.05-3.44,2.87-3.08,4.6,.12,.59,.54,2.61,3.62,3.83,2.58,1.02,6.6,1.31,7.79,.39,1.04-.8-.35-2.31-.41-2.38-1.02-1.08-2.4-1.2-2.77-2.04-.31-.72,.3-1.51,1.23-1.89,2.71-1.1,8.83,.97,10.02,1.38,6.03,2.04,9.2,5.14,9.63,5.58,2.33,2.34,3.25,3.83,3.66,3.8,.59-.06,.18-3.29-2.78-6.5Z"/><path class="cls-4" d="M196.01,177.99c.91-1.08,3-3.56,6.57-4.23,.37-.07,6.08-1.04,8.39,2.51,.94,1.45,1.1,3.41,.54,5.03-.19,.55-.84,2.44-2.65,3.07-1.51,.52-3.59,.08-3.99-1.03-.34-.97,.68-2.19,.73-2.24,.74-.86,1.46-.73,1.83-1.48,.31-.64,.18-1.52-.21-2.06-1.12-1.56-4.63-.65-5.32-.47-3.47,.9-5.73,3.33-6.04,3.68-1.68,1.85-2.46,3.14-2.66,3.03-.28-.16,.63-3.23,2.81-5.82Z"/><path class="cls-4" d="M196.4,170.29c1.23-1.34,4.07-4.42,10.39-6.28,.66-.19,10.81-3.08,16.53-.5,2.34,1.05,3.44,2.87,3.08,4.6-.12,.59-.54,2.61-3.62,3.83-2.58,1.02-6.6,1.31-7.79,.39-1.04-.8,.35-2.31,.41-2.38,1.02-1.08,2.4-1.2,2.77-2.04,.31-.72-.3-1.51-1.23-1.89-2.71-1.1-8.83,.97-10.02,1.38-6.03,2.04-9.2,5.14-9.63,5.58-2.33,2.34-3.25,3.83-3.66,3.8-.59-.06-.18-3.29,2.78-6.5Z"/><path class="cls-4" d="M186.81,210.1c-.5-.77-1.64-2.53-1.39-4.87,.03-.24,.5-3.97,3.13-4.73,1.07-.31,2.32-.04,3.22,.61,.31,.22,1.36,.98,1.41,2.22,.04,1.04-.62,2.24-1.39,2.28-.66,.03-1.23-.83-1.25-.87-.4-.62-.18-1.04-.58-1.42-.34-.31-.91-.4-1.32-.26-1.18,.4-1.27,2.75-1.29,3.21-.1,2.32,.99,4.18,1.15,4.44,.83,1.39,1.49,2.12,1.38,2.22-.15,.15-1.89-1-3.08-2.83Z"/><path class="cls-4" d="M194.75,213.34c.89-.22,2.93-.72,4.34-2.61,.15-.2,2.35-3.24,.95-5.59-.57-.96-1.67-1.62-2.77-1.76-.38-.05-1.66-.21-2.54,.66-.74,.73-1.08,2.06-.55,2.61,.46,.48,1.47,.23,1.51,.22,.71-.18,.84-.64,1.39-.64,.46,0,.94,.33,1.14,.71,.59,1.1-.95,2.88-1.25,3.23-1.52,1.76-3.58,2.37-3.87,2.45-1.56,.44-2.53,.53-2.52,.68,.01,.21,2.06,.56,4.18,.04Z"/><path class="cls-4" d="M196.33,215.59c1.7-.17,2.96-.55,3.45-.71,2.82-.92,4.64-2.39,5.63-3.21,1.93-1.59,3.21-2.66,3.88-4.61,.24-.7,.94-2.75-.07-4.84-.81-1.65-2.23-2.38-2.7-2.61-.24-.12-2.5-1.19-4.97-.23-1.66,.65-3.01,2.06-2.78,2.5,.19,.38,1.38-.33,3.58-.16,.98,.07,2.66,.22,3.96,1.46,.36,.35,1.18,.94,1.17,1.8-.03,2.37-4,5.36-4.77,5.95-3.91,2.95-7.68,3.44-8.21,3.51-2.75,.32-4.54,.24-4.55,.46-.02,.3,3.03,1.01,6.39,.68Z"/><path class="cls-4" d="M183.19,207.76c-.38-1.67-.42-2.98-.43-3.5-.03-2.97,.79-5.16,1.25-6.36,.9-2.33,1.5-3.89,3.14-5.14,.58-.45,2.31-1.77,4.61-1.47,1.82,.24,2.97,1.36,3.33,1.73,.19,.19,1.92,1.99,1.8,4.64-.09,1.78-1,3.51-1.49,3.44-.42-.06-.13-1.41-.98-3.44-.38-.91-1.05-2.45-2.64-3.29-.44-.23-1.27-.82-2.08-.53-2.24,.79-3.81,5.5-4.12,6.42-1.55,4.64-.82,8.38-.71,8.9,.57,2.71,1.22,4.37,1.01,4.46-.27,.11-1.92-2.55-2.68-5.84Z"/><path class="cls-4" d="M117.2,164.26c-.95,1.04-3.13,3.45-6.72,3.99-.37,.06-6.12,.82-8.29-2.81-.89-1.48-.97-3.45-.36-5.05,.21-.55,.93-2.41,2.76-2.97,1.53-.47,3.59,.05,3.95,1.17,.31,.98-.76,2.16-.8,2.21-.77,.84-1.49,.68-1.88,1.42-.34,.63-.23,1.52,.13,2.07,1.06,1.6,4.61,.81,5.3,.66,3.5-.77,5.84-3.13,6.17-3.46,1.74-1.79,2.57-3.05,2.77-2.93,.28,.17-.74,3.21-3.01,5.71Z"/><path class="cls-4" d="M116.54,171.95c-1.28,1.29-4.23,4.27-10.61,5.9-.67,.17-10.91,2.69-16.54-.09-2.3-1.14-3.33-2.99-2.92-4.71,.14-.59,.63-2.59,3.76-3.7,2.61-.93,6.64-1.08,7.8-.12,1.01,.84-.43,2.3-.5,2.36-1.05,1.04-2.44,1.11-2.84,1.94-.34,.7,.24,1.52,1.17,1.93,2.67,1.2,8.85-.66,10.07-1.02,6.1-1.83,9.37-4.81,9.83-5.23,2.41-2.25,3.38-3.72,3.8-3.66,.59,.08,.06,3.3-3.01,6.39Z"/><path class="cls-4" d="M144.35,164.26c.95,1.04,3.13,3.45,6.72,3.99,.37,.06,6.12,.82,8.29-2.81,.89-1.48,.97-3.45,.36-5.05-.21-.55-.93-2.41-2.76-2.97-1.53-.47-3.59,.05-3.95,1.17-.31,.98,.76,2.16,.8,2.21,.77,.84,1.49,.68,1.88,1.42,.34,.63,.23,1.52-.13,2.07-1.06,1.6-4.61,.81-5.3,.66-3.5-.77-5.84-3.13-6.17-3.46-1.74-1.79-2.57-3.05-2.77-2.93-.28,.17,.74,3.21,3.01,5.71Z"/><path class="cls-4" d="M145.01,171.95c1.28,1.29,4.23,4.27,10.61,5.9,.67,.17,10.91,2.69,16.54-.09,2.3-1.14,3.33-2.99,2.92-4.71-.14-.59-.63-2.59-3.76-3.7-2.61-.93-6.64-1.08-7.8-.12-1.01,.84,.43,2.3,.5,2.36,1.05,1.04,2.44,1.11,2.84,1.94,.34,.7-.24,1.52-1.17,1.93-2.67,1.2-8.85-.66-10.07-1.02-6.1-1.83-9.37-4.81-9.83-5.23-2.41-2.25-3.38-3.72-3.8-3.66-.59,.08-.06,3.3,3.01,6.39Z"/><path class="cls-4" d="M72.95,169.45c-.63-1.26-2.07-4.17-1.26-7.71,.08-.37,1.47-5.99,5.64-6.7,1.7-.29,3.57,.35,4.83,1.51,.43,.4,1.91,1.74,1.76,3.65-.12,1.6-1.35,3.33-2.53,3.25-1.03-.07-1.74-1.5-1.76-1.56-.5-1.03-.09-1.63-.63-2.27-.46-.54-1.33-.77-1.97-.63-1.87,.4-2.44,3.99-2.55,4.69-.56,3.54,.78,6.58,.97,7.01,1.03,2.28,1.9,3.51,1.72,3.65-.26,.2-2.72-1.86-4.22-4.89Z"/><path class="cls-4" d="M66.04,166.02c-.74-1.66-2.43-5.49-1.62-12.03,.08-.68,1.48-11.14,6.12-15.37,1.9-1.72,4-2.01,5.45-1,.5,.35,2.18,1.53,2.07,4.85-.09,2.77-1.42,6.58-2.74,7.3-1.15,.63-1.98-1.24-2.02-1.32-.58-1.36-.14-2.68-.77-3.35-.53-.57-1.5-.33-2.23,.38-2.09,2.05-2.62,8.48-2.72,9.75-.52,6.35,1.06,10.48,1.28,11.06,1.22,3.07,2.23,4.51,2.02,4.87-.29,.52-3.09-1.15-4.86-5.13Z"/><path class="cls-4" d="M187.05,168.84c1.08-.91,3.56-3.01,4.22-6.58,.07-.37,1.03-6.08-2.52-8.38-1.45-.94-3.42-1.09-5.04-.53-.55,.19-2.44,.84-3.07,2.65-.52,1.51-.08,3.59,1.03,3.99,.97,.34,2.19-.68,2.24-.73,.86-.74,.73-1.46,1.48-1.84,.64-.31,1.52-.18,2.06,.2,1.56,1.11,.66,4.63,.48,5.32-.89,3.47-3.33,5.73-3.67,6.05-1.85,1.68-3.14,2.47-3.02,2.67,.16,.28,3.23-.63,5.81-2.82Z"/><path class="cls-4" d="M194.75,168.44c1.33-1.23,4.41-4.08,6.26-10.4,.19-.66,3.06-10.81,.47-16.53-1.06-2.34-2.87-3.43-4.61-3.08-.59,.12-2.61,.54-3.82,3.63-1.02,2.58-1.3,6.6-.38,7.79,.8,1.04,2.31-.36,2.38-.42,1.07-1.02,1.2-2.4,2.04-2.77,.72-.32,1.51,.3,1.89,1.23,1.1,2.71-.96,8.83-1.37,10.03-2.04,6.04-5.13,9.21-5.56,9.64-2.34,2.33-3.83,3.25-3.79,3.67,.06,.59,3.29,.17,6.49-2.79Z"/><path class="cls-4" d="M42.08,151.48c-.41-.51,3.92-2.68,6.21-8.19,1.64-3.93,1.04-6.69,3.39-8.19,1.35-.86,3.43-1.16,4.24-.28,1.49,1.63-1.57,7.17-4.8,10.73-3.81,4.2-8.61,6.47-9.04,5.93Z"/><path class="cls-4" d="M218.93,145.6c.41-.51-3.92-2.68-6.21-8.19-1.64-3.93-1.04-6.69-3.39-8.19-1.35-.86-3.43-1.16-4.24-.28-1.49,1.63,1.57,7.17,4.8,10.73,3.81,4.2,8.61,6.47,9.04,5.93Z"/><path class="cls-4" d="M57.54,124.71c.48-.78,1.59-2.56,1.28-4.9-.03-.24-.58-3.95-3.23-4.66-1.08-.29-2.32,0-3.21,.68-.3,.23-1.34,1.01-1.36,2.25-.02,1.04,.67,2.23,1.43,2.25,.67,.02,1.21-.86,1.23-.9,.38-.63,.16-1.05,.55-1.43,.33-.32,.9-.42,1.31-.29,1.18,.37,1.33,2.72,1.36,3.18,.14,2.32-.91,4.2-1.06,4.46-.81,1.4-1.44,2.15-1.33,2.25,.16,.14,1.87-1.04,3.02-2.9Z"/><path class="cls-4" d="M61.11,122.29c.35-1.67,.36-2.99,.36-3.51-.03-2.97-.9-5.14-1.38-6.33-.95-2.32-1.58-3.86-3.24-5.08-.59-.44-2.35-1.72-4.64-1.37-1.82,.28-2.94,1.42-3.3,1.8-.18,.19-1.88,2.03-1.7,4.67,.12,1.78,1.07,3.49,1.56,3.4,.42-.07,.1-1.42,.91-3.46,.36-.91,1-2.47,2.58-3.34,.44-.24,1.25-.85,2.07-.58,2.25,.74,3.93,5.42,4.25,6.33,1.65,4.61,1,8.36,.9,8.88-.51,2.72-1.13,4.4-.91,4.48,.28,.11,1.86-2.59,2.56-5.9Z"/><path class="cls-4" d="M206.73,116.85c-.48-.78-1.59-2.56-1.28-4.9,.03-.24,.58-3.95,3.23-4.66,1.08-.29,2.32,0,3.21,.68,.3,.23,1.34,1.01,1.36,2.25,.02,1.04-.67,2.23-1.43,2.25-.67,.02-1.21-.86-1.23-.9-.38-.63-.16-1.05-.55-1.43-.33-.32-.9-.42-1.31-.29-1.18,.37-1.33,2.72-1.36,3.18-.14,2.32,.91,4.2,1.06,4.46,.81,1.4,1.44,2.15,1.33,2.25-.16,.14-1.87-1.04-3.02-2.9Z"/><path class="cls-4" d="M203.16,114.44c-.35-1.67-.36-2.99-.36-3.51,.03-2.97,.9-5.14,1.38-6.33,.95-2.32,1.58-3.86,3.24-5.08,.59-.44,2.35-1.72,4.64-1.37,1.82,.28,2.94,1.42,3.3,1.8,.18,.19,1.88,2.03,1.7,4.67-.12,1.78-1.07,3.49-1.56,3.4-.42-.07-.1-1.42-.91-3.46-.36-.91-1-2.47-2.58-3.34-.44-.24-1.25-.85-2.07-.58-2.25,.74-3.93,5.42-4.25,6.33-1.65,4.61-1,8.36-.9,8.88,.51,2.72,1.13,4.4,.91,4.48-.28,.11-1.86-2.59-2.56-5.9Z"/><path class="cls-4" d="M50.27,98.31c.65-.09-.99-4.64,1.15-10.22,1.53-3.98,3.86-5.56,3.19-8.27-.38-1.55-1.68-3.21-2.87-3.12-2.2,.16-3.81,6.28-3.92,11.08-.13,5.67,1.78,10.62,2.46,10.53Z"/><path class="cls-4" d="M54.66,70.21c-.64-.12,1.2-4.59-.68-10.26-1.35-4.04-3.6-5.73-2.82-8.4,.45-1.53,1.83-3.13,3.01-2.99,2.19,.26,3.52,6.45,3.42,11.25-.12,5.67-2.26,10.53-2.93,10.41Z"/><path class="cls-4" d="M211.74,93.26c-.65-.09,.99-4.64-1.15-10.22-1.53-3.98-3.86-5.56-3.19-8.27,.38-1.55,1.68-3.21,2.87-3.12,2.2,.16,3.81,6.28,3.92,11.08,.13,5.67-1.78,10.62-2.46,10.53Z"/><path class="cls-4" d="M207.35,65.16c.64-.12-1.2-4.59,.68-10.26,1.35-4.04,3.6-5.73,2.82-8.4-.45-1.53-1.83-3.13-3.01-2.99-2.19,.26-3.52,6.45-3.42,11.25,.12,5.67,2.26,10.53,2.93,10.41Z"/><path class="cls-16" d="M133.22,14.05c.71-1.22,2.35-4.02,5.76-5.29,.36-.13,5.82-2.06,8.69,1.04,1.17,1.27,1.66,3.18,1.39,4.87-.09,.58-.41,2.55-2.09,3.48-1.4,.78-3.53,.69-4.1-.33-.5-.89,.3-2.27,.33-2.33,.59-.98,1.32-.97,1.55-1.77,.2-.68-.08-1.53-.55-2-1.37-1.35-4.68,.15-5.32,.44-3.26,1.48-5.07,4.26-5.32,4.66-1.34,2.11-1.89,3.52-2.11,3.44-.31-.11,.07-3.29,1.77-6.21Z"/><path class="cls-16" d="M126.93,14.05c-.71-1.22-2.35-4.02-5.76-5.29-.36-.13-5.82-2.06-8.69,1.04-1.17,1.27-1.66,3.18-1.39,4.87,.09,.58,.41,2.55,2.09,3.48,1.4,.78,3.53,.69,4.1-.33,.5-.89-.3-2.27-.33-2.33-.59-.98-1.32-.97-1.55-1.77-.2-.68,.08-1.53,.55-2,1.37-1.35,4.68,.15,5.32,.44,3.26,1.48,5.07,4.26,5.32,4.66,1.34,2.11,1.89,3.52,2.11,3.44,.31-.11-.07-3.29-1.77-6.21Z"/><path class="cls-16" d="M101.24,14.43c-.79,1.16-2.62,3.85-6.11,4.88-.36,.11-5.94,1.65-8.6-1.64-1.08-1.34-1.44-3.28-1.05-4.95,.13-.57,.58-2.52,2.32-3.33,1.45-.68,3.56-.45,4.07,.62,.44,.93-.45,2.25-.49,2.3-.65,.93-1.38,.88-1.67,1.66-.25,.67-.02,1.53,.42,2.03,1.27,1.44,4.67,.17,5.34-.08,3.36-1.25,5.36-3.9,5.63-4.28,1.48-2.01,2.13-3.38,2.34-3.28,.3,.13-.3,3.28-2.2,6.07Z"/><path class="cls-16" d="M101.64,22.14c-1.09,1.45-3.6,4.81-9.69,7.31-.64,.26-10.43,4.17-16.4,2.18-2.43-.81-3.71-2.5-3.54-4.26,.06-.6,.27-2.65,3.21-4.18,2.46-1.28,6.43-1.98,7.71-1.19,1.11,.69-.11,2.34-.17,2.41-.9,1.17-2.27,1.44-2.55,2.31-.24,.74,.45,1.47,1.42,1.75,2.81,.82,8.68-1.87,9.83-2.4,5.79-2.65,8.62-6.05,9.01-6.53,2.08-2.56,2.84-4.15,3.26-4.15,.59,0,.51,3.26-2.1,6.75Z"/><path class="cls-16" d="M156.93,14.43c.79,1.16,2.62,3.85,6.11,4.88,.36,.11,5.94,1.65,8.6-1.64,1.08-1.34,1.44-3.28,1.05-4.95-.13-.57-.58-2.52-2.32-3.33-1.45-.68-3.56-.45-4.07,.62-.44,.93,.45,2.25,.49,2.3,.65,.93,1.38,.88,1.67,1.66,.25,.67,.02,1.53-.42,2.03-1.27,1.44-4.67,.17-5.34-.08-3.36-1.25-5.36-3.9-5.63-4.28-1.48-2.01-2.13-3.38-2.34-3.28-.3,.13,.3,3.28,2.2,6.07Z"/><path class="cls-16" d="M156.53,22.14c1.09,1.45,3.6,4.81,9.69,7.31,.64,.26,10.43,4.17,16.4,2.18,2.43-.81,3.71-2.5,3.54-4.26-.06-.6-.27-2.65-3.21-4.18-2.46-1.28-6.43-1.98-7.71-1.19-1.11,.69,.11,2.34,.17,2.41,.9,1.17,2.27,1.44,2.55,2.31,.24,.74-.45,1.47-1.42,1.75-2.81,.82-8.68-1.87-9.83-2.4-5.79-2.65-8.62-6.05-9.01-6.53-2.08-2.56-2.84-4.15-3.26-4.15-.59,0-.51,3.26,2.1,6.75Z"/><circle class="cls-18" cx="122.25" cy="21.56" r="2.33"/><circle class="cls-18" cx="141.29" cy="21.82" r="2.33"/><circle class="cls-18" cx="91.46" cy="35.45" r="2.33"/><circle class="cls-18" cx="172.84" cy="37.79" r="2.33"/><circle class="cls-18" cx="64.2" cy="35.45" r="2.33"/><circle class="cls-18" cx="107.27" cy="6.98" r="2.33"/><circle class="cls-18" cx="149.41" cy="6.52" r="2.33"/><circle class="cls-18" cx="197.05" cy="33.44" r="2.33"/><circle class="cls-18" cx="129.47" cy="157.24" r="2.33"/><circle class="cls-18" cx="112.37" cy="151.55" r="2.33"/><circle class="cls-18" cx="151.48" cy="153.02" r="2.33"/><circle class="cls-18" cx="90.96" cy="143.34" r="2.33"/><circle class="cls-18" cx="171.56" cy="144.22" r="2.33"/><circle class="cls-18" cx="74.08" cy="127.62" r="2.33"/><circle class="cls-18" cx="189.72" cy="128.19" r="2.33"/><circle class="cls-16" cx="79.89" cy="17.93" r="2.33"/><circle class="cls-18" cx="103.87" cy="26.84" r="2.33"/><circle class="cls-18" cx="130.36" cy="4.64" r="2.33"/><circle class="cls-16" cx="178.53" cy="15.6" r="2.33"/><circle class="cls-18" cx="159.49" cy="29.17" r="2.33"/><circle class="cls-16" cx="119.1" cy="4.19" r="2.33"/><circle class="cls-16" cx="141.29" cy="4.64" r="2.33"/><circle class="cls-16" cx="200.46" cy="44.68" r="2.33"/><circle class="cls-16" cx="211.83" cy="68.06" r="2.33"/><circle class="cls-16" cx="49.18" cy="71.61" r="2.33"/><circle class="cls-16" cx="61.47" cy="48.55" r="2.33"/><circle class="cls-17" cx="75.81" cy="182.61" r="2.33"/><circle class="cls-17" cx="55.07" cy="155.28" r="2.33"/><circle class="cls-18" cx="55.07" cy="194.41" r="2.33"/><circle class="cls-18" cx="182.76" cy="182.61" r="2.33"/><circle class="cls-17" cx="210.75" cy="154.97" r="2.33"/><circle class="cls-17" cx="226.48" cy="179.03" r="2.33"/><circle class="cls-17" cx="31.77" cy="179.86" r="2.33"/><circle class="cls-17" cx="165.59" cy="155.93" r="2.33"/><circle class="cls-17" cx="176.86" cy="150.69" r="2.33"/><circle class="cls-17" cx="187.39" cy="141.88" r="2.33"/><circle class="cls-17" cx="197.75" cy="132.28" r="2.33"/><circle class="cls-17" cx="102.59" cy="153.85" r="2.33"/><circle class="cls-17" cx="91.94" cy="151.52" r="2.33"/><circle class="cls-17" cx="81.6" cy="145.25" r="2.33"/><circle class="cls-17" cx="220.67" cy="187.9" r="2.33"/><circle class="cls-17" cx="223" cy="168.15" r="2.33"/><circle class="cls-17" cx="236.28" cy="192.57" r="2.33"/><circle class="cls-17" cx="230.43" cy="221.64" r="2.33"/><circle class="cls-17" cx="242.28" cy="242.65" r="2.33"/><circle class="cls-17" cx="195.53" cy="144.22" r="2.33"/><circle class="cls-17" cx="184.27" cy="156.19" r="2.33"/><circle class="cls-17" cx="170.21" cy="172.31" r="2.33"/><circle class="cls-17" cx="91.94" cy="171.71" r="2.33"/><circle class="cls-17" cx="75.22" cy="142.92" r="2.33"/><circle class="cls-17" cx="40.7" cy="169.97" r="2.33"/><circle class="cls-17" cx="81.6" cy="159.58" r="2.33"/><circle class="cls-17" cx="54.33" cy="182.61" r="2.33"/><circle class="cls-17" cx="208.42" cy="182.2" r="2.33"/><circle class="cls-17" cx="42.06" cy="190.01" r="2.33"/><circle class="cls-17" cx="31.77" cy="221.64" r="2.33"/><circle class="cls-18" cx="206.75" cy="191.8" r="2.33"/><circle class="cls-18" cx="216.5" cy="203.83" r="2.33"/><circle class="cls-18" cx="226.48" cy="212.95" r="2.33"/><circle class="cls-18" cx="47.19" cy="204.29" r="2.33"/><circle class="cls-18" cx="38.32" cy="213.62" r="2.33"/><path class="cls-7" d="M55.92,264.91c5.49-3.39,12.67,1.72,16.64-1.88,.56-.51,1.44-1.54,2.22-1.3,.79,.24,1.19,1.73,.98,2.93-.4,2.18-3.36,3.24-5.08,3.51-2.42,.39-3.96-.51-4.1-.2-.25,.58,4.37,4.82,10.35,5.27,5.8,.44,9.99-2.89,10.93-1.56,.52,.74-.29,2.44-1.37,3.51-4.19,4.18-14.23,.46-14.25,.59-.01,.06,2.32,.89,6.3,1.19,4.22,.31,6.16-.28,6.44,.44,.37,.92-2.21,3.27-5.27,4.33-3.82,1.32-7.6,.34-7.6,.25,0-.06,1.63,.17,4.96,0,3.78-.2,5.09-.51,5.27-.06,.27,.66-1.99,2.62-4.67,3.64-2.58,.98-4.92,.75-9.61,.3-4.28-.42-5.55-1.08-5.96-1.31-1.67-.93-1.86-1.4-3.55-2.3-2.63-1.41-3.03-1.09-4.14-2.2-2.44-2.42-3.4-6.62-2.2-10.17,.25-.75,1.14-3.38,3.7-4.96Z"/><path class="cls-7" d="M203.66,264.91c-5.49-3.39-12.67,1.72-16.64-1.88-.56-.51-1.44-1.54-2.22-1.3-.79,.24-1.19,1.73-.98,2.93,.4,2.18,3.36,3.24,5.08,3.51,2.42,.39,3.96-.51,4.1-.2,.25,.58-4.37,4.82-10.35,5.27-5.8,.44-9.99-2.89-10.93-1.56-.52,.74,.29,2.44,1.37,3.51,4.19,4.18,14.23,.46,14.25,.59,.01,.06-2.32,.89-6.3,1.19-4.22,.31-6.16-.28-6.44,.44-.37,.92,2.21,3.27,5.27,4.33,3.82,1.32,7.6,.34,7.6,.25,0-.06-1.63,.17-4.96,0-3.78-.2-5.09-.51-5.27-.06-.27,.66,1.99,2.62,4.67,3.64,2.58,.98,4.92,.75,9.61,.3,4.28-.42,5.55-1.08,5.96-1.31,1.67-.93,1.86-1.4,3.55-2.3,2.63-1.41,3.03-1.09,4.14-2.2,2.44-2.42,3.4-6.62,2.2-10.17-.25-.75-1.14-3.38-3.7-4.96Z"/><g><path class="cls-3" d="M66.51,253.91c-9.36,1.97-19.69,4.14-19.68,8.09,0,1.82,2.52,3.19,7.55,5.93,5.98,3.26,11.77,5.25,17.52,6.74,4.93,1.27,8.51,1.83,15.19,2.88,0,0,8.11,1.27,15.27,1.98,13.47,1.34,27.88,.42,51.75-.27,22.26-.64,33.66-1.06,46.83-5.93,1.91-.71,18.32-6.82,17.6-11.59-.22-1.43-4.19-3.02-12.13-6.2-5.23-2.09-7.54-2.73-8.9-1.62-1.37,1.12-.66,3.12-1.08,4.85-1.63,6.78-20.18,8.14-33.15,8.9-18.24,1.07-31.13,1.29-35.04,1.35-18.01,.28-24.97,.1-33.42-.81-18.32-1.98-27.08-5.61-27.22-8.9-.08-1.89,2.68-4,1.89-5.12-.54-.76-2.24-.42-2.97-.27Z"/><path class="cls-21" d="M64.56,256.12c-1.43,.77-4.96,2.67-4.93,4.69,.03,2.14,4.02,3.66,9.7,5.66,14.76,5.19,18.87,6.2,18.87,6.2,24.38,6.01,22.14,5.85,24.36,6.11,0,0,8.55,.99,29.43-.7h0s24.61-.27,37.91-1.65c4.33-.45,7.53-1.02,9.41-1.36,2.87-.52,4.48-.81,6.71-1.46,1.67-.49,3.89-1.39,8.26-3.18,4.08-1.67,4.59-1.96,5.16-2.67,1.54-1.92,1.91-4.94,.8-7.3-.98-2.08-2.73-2.85-6.09-4.33-2.38-1.04-4.28-1.88-5.64-1.05-1.4,.86-1.04,2.77-1.63,4.55-1.05,3.15-4.93,5.43-14.35,7.3-7.36,1.47-12.37,1.55-20.45,1.89-12.96,.55-10.21,.76-21.91,1.2-12.38,.47-21.43,.45-24.83,.43-10.5-.06-15.64-.39-19.16-.69-3.99-.33-10-.96-17.27-3.01-11.88-3.34-12.4-6.33-12.46-7.05-.15-2.04,2.15-3.88,1.55-4.55-.55-.61-2.76,.58-3.44,.95Z"/><path class="cls-3" d="M69.04,260.68c-5.86-8.65,7-30,22.73-42.5,8.13-6.46,15.46-9.3,17.61-10.09,17.85-6.59,33.47-2.77,38.73-1.41,5.49,1.42,17.52,4.69,27.75,14.75,4.18,4.11,7.23,8.85,13.33,18.35,0,0,2.37,3.68,5.16,10.33,2.85,6.76,2.7,8.79,2.04,10.25-.87,1.91-2.7,2.95-6.27,4.29-8.35,3.14-15.39,3.88-16.17,3.96-17.91,1.87-12.13,1.61-20.78,2.31-7.62,.61-13.84,1.11-22.43,1.32-7.17,.17-13.54,.31-22.1-.33-6.26-.46-10.11-1.08-17.82-2.31-6.89-1.1-10.46-1.91-14.52-3.96-3.81-1.92-5.93-2.99-7.26-4.95Z"/><polygon class="cls-22" points="79.05 265.51 81.09 255.83 86.33 240.19 92.73 230.29 90.4 241.06 87.2 254.45 88.65 267.84 79.05 265.51"/><path class="cls-22" d="M121.43,205.99c.62-2.51,12.42-1.45,14.35-1.28,4.31,.38,11.73,1.11,20.82,4.92,4.67,1.96,12.41,5.3,19.58,12.71,3.48,3.6,5.94,7.24,9.25,12.14,1.73,2.56,3.92,6,6.19,10.37,4.01,7.71,6.42,12.5,4.49,15.68-.68,1.13-2.07,1.82-4.86,3.21-2.98,1.49-5.85,2.92-7.77,1.85-1.89-1.05-2.04-4.04-2.23-6.08,0,0-.52-5.88-5.02-19.39-2.62-7.88-7.35-12.95-10.03-15.82-8.91-9.54-21.02-14.73-22.07-13.27-.41,.57,1.07,1.84,3.26,5.1,3.79,5.64,5.2,10.74,8.03,20.92,1.32,4.77,2.83,10.22,3.33,16.17,.16,1.87,.14,2.95,.26,4.64,.09,1.2,.2,2.07,.25,2.59,.6,5.5,.89,8.26,.55,8.84-.93,1.57-2.77,.77-11.53,1.48-3.8,.31-7.63,.14-11.41,.62-1.93,.24-3.63,.53-4.61-.49-1.08-1.13-.57-3.07-.21-5.73,.43-3.16-.03-6.4,.22-9.58,.35-4.4,.34-9.37,.32-19.31-.02-10.06-.43-18.43-3.76-22.84-1.74-2.31-3.77-3.7-3.77-3.7-1.89-1.15-3.92-2.65-3.64-3.77Z"/><ellipse class="cls-2" cx="132.2" cy="205.98" rx="3.32" ry="2.76"/><path class="cls-3" d="M122.07,201.91c.29,2.73,5.81,4.23,9.18,4.51,4.51,.38,7.93-1.18,9.73-2.8,1.02-.92,1.33-1.68,1.35-2.33,.05-1.22-.83-2.57-1.75-2.64-.78-.06-1.27,.79-2.02,1.56-2.21,2.26-5.97,2-7.04,1.93-4.48-.3-6.37-3.77-8.27-2.7-.84,.47-1.28,1.6-1.18,2.48Z"/><ellipse class="cls-3" cx="132.19" cy="195.58" rx="9.99" ry="6.97"/><path class="cls-22" d="M136.48,190.4c.45-.45,3.08,.68,4.21,2.95,.28,.56,.89,2.04,.37,3.7-.83,2.63-3.95,3.92-4.36,3.49-.36-.38,1.69-1.75,1.88-4.32,.24-3.18-2.6-5.3-2.09-5.82Z"/><path class="cls-22" d="M141.08,200.44c.35,.25,.31,.96,.2,1.35-.17,.59-.62,.95-1.32,1.4-1.48,.95-2.22,1.43-3.1,1.61-2.31,.47-4.71-.7-4.65-1.17,.05-.4,1.8,.09,4.27-.85,2.64-1,3.93-2.81,4.6-2.35Z"/></g><path class="cls-9" d="M19.16,341.5c1.23-.97,3.68-.4,4.56-.22,7.45,1.54,16.43-1.14,17-1.31,5.03-1.54,12.79-6.03,14.4-11.88,.33-1.21,.61-3.24,2.42-4.01,1.77-.75,3.78,.53,5.56,.71,4.68,.47,9.69,.96,14.64,0,1.3-.25,11.22-2.3,15.17-8.87,3.21-5.34,.5-10.36,4.28-12.07,1.57-.71,2.72-.16,5.35-.15,6.31,.03,11.16-3.07,14.1-4.94,10.82-6.91,11.39-18.98,14.1-18.62,.84,.11,.96,1.3,1.94,3.48,1.83,4.05,4.41,6.5,8.43,10.34,5.9,5.62,8.86,8.44,13.01,9.16,5,.87,9.61-.89,11.48,1.28,.54,.62,.49,1.15,.65,2.36,0,0,.46,3.33,2.86,8,3.06,5.97,11.65,8.67,13.21,9.16,2.84,.89,7.85,2.47,13.41,1.25,3.62-.79,5.76-2.4,8.19-1.54,1.9,.67,2.1,2.49,3.39,4.07,4.5,5.53,6.75,8.3,9.46,10.04,4.97,3.19,10.79,3.62,16.78,4.07,5.49,.41,10.02-1.18,10.53-.15,.39,.79-1.91,2.2-2.2,2.39-4.2,2.55-9.68,1.86-12.83,1.43-8.69-1.19-14.47-5.05-16.43-6.39-3.76-2.58-6.12-4.19-7.75-7.14-1.23-2.23-1.56-4.34-3.52-4.91-1.74-.51-3.46,.58-4.89,1.18-8.06,3.41-20.13-2.68-20.65-2.95-1.74-.9-11.22-5.81-11.63-12.68-.12-2.01,.52-4.37-1.25-5.54-1.43-.94-3.26-.32-5.24-.24-8.2,.35-16.2-8.62-19.44-12.25-3.43-3.84-5.46-7.4-7.5-7.02-.83,.15-1.24,.88-1.75,1.71,0,0-.66,1.08-5.55,7.73-.84,1.14-4.06,5.52-9.75,7.14-5.91,1.68-9.93,1.53-9.93,1.53-1.2-.05-2.71-.19-3.88,.57-1.56,1.03-1.48,3.01-1.49,3.87,0,0-.05,5.09-5.03,11.19-4.51,5.52-13.16,6.87-15,7.11-4.78,.63-9.08,1.2-13.33-.36-1-.37-2.68-1.1-4.1-.54-1.65,.65-1.77,2.61-2.17,3.99-1.14,3.88-5.46,6.08-11.78,9.3-2.09,1.07-7.46,3.6-15.04,4.72-3.24,.48-11.44,1.7-13.23-.89-.64-.93-.47-2.39,.42-3.1Z"/><path class="cls-23" d="M36.99,354.38c1.08-.82,3.23-.34,4.01-.19,6.55,1.31,14.44-.96,14.94-1.11,4.42-1.31,11.25-5.11,12.66-10.06,.29-1.03,.54-2.75,2.13-3.4,1.55-.64,3.32,.45,4.89,.6,4.12,.39,8.52,.82,12.87,0,1.14-.21,9.86-1.95,13.34-7.52,2.83-4.52,.44-8.78,3.77-10.23,1.38-.6,2.39-.13,4.71-.12,5.54,.03,9.81-2.6,12.4-4.19,9.51-5.85,10.01-16.08,12.4-15.77,.74,.09,.84,1.1,1.71,2.95,1.61,3.43,3.87,5.51,7.41,8.76,5.19,4.76,7.78,7.15,11.43,7.76,4.4,.74,8.45-.76,10.09,1.08,.47,.53,.43,.97,.58,2,0,0,.4,2.82,2.51,6.78,2.69,5.06,10.24,7.35,11.61,7.76,2.49,.76,6.9,2.09,11.79,1.06,3.19-.67,5.06-2.04,7.2-1.31,1.67,.57,1.85,2.11,2.98,3.45,3.96,4.69,5.94,7.03,8.32,8.5,4.37,2.7,9.49,3.07,14.75,3.45,4.83,.35,8.81-1,9.26-.12,.34,.67-1.68,1.87-1.94,2.02-3.69,2.16-8.51,1.58-11.28,1.21-7.64-1.01-12.72-4.28-14.44-5.41-3.31-2.18-5.38-3.55-6.81-6.05-1.08-1.89-1.37-3.68-3.09-4.16-1.53-.43-3.04,.49-4.3,1-7.09,2.89-17.7-2.27-18.16-2.5-1.53-.76-9.86-4.92-10.23-10.74-.11-1.71,.46-3.7-1.1-4.69-1.26-.8-2.86-.27-4.6-.2-7.21,.3-14.24-7.3-17.09-10.38-3.01-3.26-4.8-6.27-6.59-5.95-.73,.13-1.09,.74-1.54,1.45,0,0-.58,.92-4.88,6.54-.74,.96-3.57,4.68-8.57,6.05-5.19,1.43-8.73,1.3-8.73,1.3-1.05-.04-2.38-.17-3.41,.49-1.37,.87-1.3,2.55-1.31,3.28,0,0-.05,4.31-4.42,9.48-3.97,4.68-11.57,5.82-13.19,6.02-4.21,.53-7.98,1.01-11.72-.31-.88-.31-2.36-.93-3.6-.46-1.45,.55-1.55,2.21-1.91,3.38-1.01,3.29-4.8,5.15-10.35,7.88-1.84,.9-6.56,3.05-13.22,4-2.85,.41-10.06,1.44-11.63-.75-.57-.79-.42-2.02,.37-2.62Z"/><path class="cls-4" d="M60.15,249.46c-.67,.24-2.2,.8-3.93,.19-.18-.06-2.91-1.07-3.03-3.2-.05-.87,.38-1.76,1.03-2.33,.22-.19,.98-.85,1.93-.67,.79,.15,1.59,.87,1.48,1.45-.09,.51-.85,.78-.88,.79-.54,.19-.82-.05-1.17,.19-.3,.2-.46,.62-.43,.95,.1,.96,1.86,1.45,2.2,1.54,1.74,.48,3.33-.02,3.56-.09,1.2-.39,1.86-.75,1.92-.65,.08,.14-1.09,1.25-2.68,1.83Z"/><path class="cls-4" d="M64,244.01c-.01-.71-.03-2.34-1.21-3.74-.12-.15-2.04-2.34-4.07-1.7-.83,.26-1.51,.98-1.82,1.79-.1,.28-.45,1.22,.05,2.04,.42,.69,1.37,1.18,1.88,.87,.44-.27,.43-1.07,.43-1.1-.01-.57-.34-.75-.24-1.16,.08-.35,.42-.65,.74-.74,.93-.25,2.01,1.22,2.22,1.51,1.06,1.45,1.17,3.12,1.18,3.36,.06,1.26-.04,2.01,.07,2.03,.16,.03,.79-1.46,.76-3.16Z"/><path class="cls-4" d="M65.97,243.22c.17-1.32,.11-2.33,.07-2.74-.2-2.3-.99-3.93-1.44-4.82-.87-1.74-1.45-2.89-2.81-3.74-.49-.3-1.92-1.2-3.67-.79-1.39,.32-2.19,1.27-2.45,1.58-.13,.16-1.34,1.68-1.04,3.72,.2,1.37,1.03,2.64,1.4,2.55,.32-.08,0-1.1,.5-2.74,.23-.73,.63-1.97,1.8-2.74,.33-.21,.92-.73,1.57-.57,1.79,.44,3.36,3.97,3.66,4.66,1.55,3.47,1.26,6.41,1.21,6.83-.24,2.13-.62,3.47-.45,3.52,.22,.07,1.29-2.11,1.64-4.72Z"/><path class="cls-4" d="M57.75,251.78c-1.33,0-2.33-.2-2.72-.29-2.25-.5-3.76-1.5-4.59-2.06-1.61-1.09-2.68-1.81-3.34-3.28-.24-.52-.93-2.06-.3-3.74,.5-1.34,1.55-2.01,1.89-2.22,.17-.11,1.85-1.11,3.82-.54,1.33,.38,2.48,1.37,2.34,1.73-.12,.31-1.09-.15-2.78,.14-.75,.13-2.04,.37-2.95,1.42-.25,.29-.84,.82-.77,1.48,.2,1.83,3.49,3.85,4.13,4.24,3.24,1.99,6.19,2.09,6.61,2.1,2.15,.05,3.52-.15,3.55,.02,.04,.23-2.27,1-4.89,1Z"/><path class="cls-4" d="M196.41,244.32c-.26-.66-.85-2.18-.29-3.92,.06-.18,1-2.94,3.12-3.1,.87-.07,1.77,.34,2.36,.97,.2,.22,.88,.96,.72,1.91-.13,.8-.83,1.61-1.41,1.52-.51-.08-.8-.83-.82-.86-.2-.54,.03-.82-.22-1.17-.21-.29-.63-.45-.96-.4-.96,.12-1.4,1.89-1.49,2.24-.44,1.75,.1,3.33,.18,3.55,.42,1.19,.8,1.84,.7,1.9-.14,.09-1.28-1.05-1.9-2.64Z"/><path class="cls-4" d="M201.94,248.03c.71-.03,2.34-.09,3.71-1.3,.14-.13,2.29-2.09,1.6-4.11-.28-.82-1.02-1.49-1.83-1.77-.28-.1-1.23-.42-2.04,.1-.68,.44-1.14,1.4-.82,1.9,.28,.44,1.08,.41,1.11,.4,.57-.03,.74-.35,1.16-.27,.35,.07,.66,.4,.75,.72,.27,.93-1.17,2.04-1.46,2.26-1.43,1.1-3.09,1.24-3.33,1.26-1.25,.09-2.01,0-2.03,.12-.02,.16,1.48,.75,3.18,.68Z"/><path class="cls-4" d="M202.78,249.98c1.32,.14,2.33,.05,2.74,0,2.29-.25,3.9-1.09,4.79-1.56,1.72-.91,2.86-1.52,3.67-2.9,.29-.49,1.15-1.95,.7-3.69-.35-1.38-1.32-2.16-1.64-2.41-.16-.13-1.72-1.3-3.74-.95-1.37,.23-2.61,1.1-2.51,1.47,.09,.32,1.1-.03,2.75,.44,.73,.21,1.99,.58,2.78,1.73,.22,.32,.75,.9,.6,1.55-.4,1.8-3.88,3.45-4.57,3.77-3.43,1.63-6.38,1.41-6.79,1.38-2.14-.19-3.49-.53-3.53-.36-.06,.22,2.15,1.24,4.75,1.52Z"/><path class="cls-4" d="M194.02,241.97c-.03-1.33,.14-2.33,.22-2.73,.44-2.26,1.41-3.8,1.95-4.64,1.05-1.63,1.75-2.72,3.19-3.42,.52-.25,2.04-.98,3.74-.39,1.35,.47,2.04,1.5,2.26,1.84,.11,.17,1.15,1.82,.64,3.81-.35,1.34-1.31,2.51-1.67,2.38-.31-.11,.12-1.1-.21-2.77-.15-.75-.42-2.03-1.5-2.91-.3-.25-.84-.82-1.5-.73-1.83,.25-3.76,3.58-4.14,4.23-1.91,3.29-1.94,6.24-1.94,6.66,0,2.15,.24,3.52,.07,3.55-.23,.04-1.06-2.24-1.12-4.86Z"/><circle class="cls-17" cx="68.49" cy="231.02" r="2.33"/><circle class="cls-17" cx="98.4" cy="201.96" r="2.33"/><circle class="cls-17" cx="130.68" cy="179.03" r="2.33"/><circle class="cls-17" cx="161.36" cy="202.63" r="2.33"/><circle class="cls-17" cx="191.43" cy="232.9" r="2.33"/><path class="cls-4" d="M116.22,287.46c-.95,1.04-3.13,3.45-6.72,3.99-.37,.06-6.12,.82-8.29-2.81-.89-1.48-.97-3.45-.36-5.05,.21-.55,.93-2.41,2.76-2.97,1.53-.47,3.59,.05,3.95,1.17,.31,.98-.76,2.16-.8,2.21-.77,.84-1.49,.68-1.88,1.42-.34,.63-.23,1.52,.13,2.07,1.06,1.6,4.61,.81,5.3,.66,3.5-.77,5.84-3.13,6.17-3.46,1.74-1.79,2.57-3.05,2.77-2.93,.28,.17-.74,3.21-3.01,5.71Z"/><path class="cls-4" d="M115.55,295.14c-1.28,1.29-4.23,4.27-10.61,5.9-.67,.17-10.91,2.69-16.54-.09-2.3-1.14-3.33-2.99-2.92-4.71,.14-.59,.63-2.59,3.76-3.7,2.61-.93,6.64-1.08,7.8-.12,1.01,.84-.43,2.3-.5,2.36-1.05,1.04-2.44,1.11-2.84,1.94-.34,.7,.24,1.52,1.17,1.93,2.67,1.2,8.85-.66,10.07-1.02,6.1-1.83,9.37-4.81,9.83-5.23,2.41-2.25,3.38-3.72,3.8-3.66,.59,.08,.06,3.3-3.01,6.39Z"/><path class="cls-4" d="M143.36,287.46c.95,1.04,3.13,3.45,6.72,3.99,.37,.06,6.12,.82,8.29-2.81,.89-1.48,.97-3.45,.36-5.05-.21-.55-.93-2.41-2.76-2.97-1.53-.47-3.59,.05-3.95,1.17-.31,.98,.76,2.16,.8,2.21,.77,.84,1.49,.68,1.88,1.42,.34,.63,.23,1.52-.13,2.07-1.06,1.6-4.61,.81-5.3,.66-3.5-.77-5.84-3.13-6.17-3.46-1.74-1.79-2.57-3.05-2.77-2.93-.28,.17,.74,3.21,3.01,5.71Z"/><path class="cls-4" d="M144.03,295.14c1.28,1.29,4.23,4.27,10.61,5.9,.67,.17,10.91,2.69,16.54-.09,2.3-1.14,3.33-2.99,2.92-4.71-.14-.59-.63-2.59-3.76-3.7-2.61-.93-6.64-1.08-7.8-.12-1.01,.84,.43,2.3,.5,2.36,1.05,1.04,2.44,1.11,2.84,1.94,.34,.7-.24,1.52-1.17,1.93-2.67,1.2-8.85-.66-10.07-1.02-6.1-1.83-9.37-4.81-9.83-5.23-2.41-2.25-3.38-3.72-3.8-3.66-.59,.08-.06,3.3,3.01,6.39Z"/><path class="cls-4" d="M109.89,419.45c-1.24,.66-4.11,2.19-7.67,1.49-.37-.07-6.03-1.29-6.86-5.44-.34-1.69,.25-3.58,1.36-4.88,.38-.44,1.68-1.96,3.6-1.87,1.6,.07,3.37,1.26,3.32,2.43-.04,1.03-1.44,1.78-1.5,1.81-1.01,.53-1.63,.14-2.25,.7-.53,.48-.73,1.35-.57,1.99,.46,1.86,4.06,2.32,4.77,2.41,3.55,.45,6.56-.97,6.98-1.18,2.24-1.1,3.45-2,3.6-1.83,.2,.25-1.78,2.77-4.77,4.36Z"/><path class="cls-4" d="M106.67,426.46c-1.64,.78-5.42,2.6-11.98,1.98-.68-.06-11.18-1.15-15.54-5.67-1.78-1.84-2.13-3.94-1.16-5.42,.33-.51,1.47-2.23,4.78-2.22,2.77,0,6.62,1.23,7.38,2.52,.67,1.13-1.19,2.02-1.26,2.06-1.34,.62-2.67,.22-3.33,.87-.56,.55-.28,1.51,.45,2.21,2.11,2.02,8.56,2.37,9.82,2.43,6.36,.34,10.45-1.37,11.01-1.61,3.03-1.31,4.44-2.36,4.81-2.17,.53,.27-1.06,3.12-4.99,5.01Z"/><path class="cls-4" d="M152.57,419.4c1.36,.37,4.5,1.21,7.81-.28,.35-.16,5.59-2.62,5.45-6.85-.05-1.73-1.05-3.43-2.43-4.44-.47-.35-2.08-1.53-3.93-1.01-1.54,.43-3,1.98-2.69,3.12,.27,.99,1.81,1.41,1.87,1.42,1.1,.28,1.62-.23,2.35,.17,.62,.35,1.02,1.15,1.01,1.81-.03,1.92-3.43,3.18-4.1,3.42-3.36,1.24-6.61,.53-7.06,.42-2.43-.56-3.82-1.17-3.92-.97-.14,.29,2.36,2.3,5.63,3.17Z"/><path class="cls-4" d="M157.29,425.5c1.77,.39,5.87,1.31,12.12-.77,.65-.22,10.63-3.64,13.86-9.03,1.32-2.2,1.19-4.32-.1-5.54-.44-.42-1.93-1.84-5.16-1.08-2.7,.63-6.17,2.69-6.62,4.12-.39,1.25,1.61,1.7,1.7,1.72,1.45,.3,2.66-.39,3.44,.09,.67,.41,.62,1.41,.07,2.26-1.6,2.45-7.8,4.24-9.02,4.59-6.12,1.76-10.49,1.03-11.09,.92-3.25-.59-4.86-1.29-5.18-1.03-.45,.38,1.73,2.8,5.99,3.75Z"/><path class="cls-4" d="M128.12,430.5c-.84-.36-2.78-1.17-3.88-3.26-.11-.22-1.81-3.56-.06-5.67,.72-.86,1.9-1.33,3.01-1.3,.38,.01,1.67,.05,2.41,1.05,.62,.84,.74,2.21,.13,2.66-.53,.4-1.48,0-1.52-.02-.68-.29-.73-.77-1.27-.85-.46-.07-.98,.18-1.24,.52-.75,.99,.49,2.99,.73,3.38,1.22,1.97,3.16,2.9,3.44,3.03,1.47,.68,2.42,.92,2.38,1.07-.05,.21-2.12,.23-4.14-.62Z"/><path class="cls-4" d="M136.52,428.73c.61-.68,2.02-2.24,2.13-4.59,.01-.25,.13-4-2.35-5.16-1.01-.48-2.29-.4-3.28,.1-.34,.17-1.49,.75-1.74,1.97-.2,1.02,.26,2.31,1.01,2.47,.65,.14,1.34-.63,1.37-.66,.49-.55,.34-1,.79-1.31,.38-.26,.96-.25,1.34-.05,1.1,.58,.83,2.92,.77,3.37-.27,2.3-1.64,3.97-1.83,4.2-1.04,1.24-1.8,1.86-1.71,1.98,.13,.17,2.02-.69,3.49-2.32Z"/><path class="cls-4" d="M139.08,429.7c1.32-1.09,2.14-2.11,2.46-2.52,1.83-2.34,2.5-4.58,2.87-5.81,.7-2.4,1.17-4,.63-5.99-.19-.71-.76-2.81-2.77-3.96-1.59-.92-3.18-.72-3.7-.65-.26,.04-2.74,.42-4.24,2.6-1.01,1.47-1.33,3.4-.9,3.63,.37,.2,.96-1.05,2.87-2.14,.85-.49,2.32-1.31,4.1-1.01,.49,.08,1.51,.12,1.98,.84,1.3,1.98-.31,6.68-.62,7.6-1.58,4.63-4.43,7.16-4.83,7.5-2.09,1.81-3.62,2.74-3.51,2.93,.15,.25,3.07-.86,5.67-3.02Z"/><path class="cls-4" d="M123.81,430.58c-1.25-1.16-2.02-2.23-2.32-2.66-1.69-2.44-2.24-4.71-2.53-5.97-.56-2.44-.94-4.06-.28-6.02,.23-.7,.92-2.76,2.99-3.8,1.64-.82,3.22-.54,3.73-.44,.26,.05,2.71,.57,4.09,2.83,.93,1.53,1.14,3.47,.7,3.68-.38,.18-.9-1.1-2.74-2.3-.82-.54-2.25-1.44-4.03-1.24-.5,.06-1.51,.03-2.02,.72-1.41,1.91-.08,6.69,.18,7.63,1.32,4.71,4.01,7.4,4.4,7.77,1.99,1.92,3.46,2.94,3.33,3.13-.17,.25-3.02-1.04-5.49-3.34Z"/><path class="cls-4" d="M18.91,335.44c1.37,.24,4.53,.78,7.8-.36,.34-.12,5.51-1.99,5.27-5.03-.1-1.24-1.14-2.44-2.55-3.14-.48-.24-2.12-1.06-3.95-.65-1.53,.34-2.94,1.48-2.6,2.29,.3,.71,1.85,.98,1.91,.99,1.11,.18,1.61-.2,2.36,.08,.63,.24,1.05,.8,1.06,1.28,.03,1.38-3.34,2.35-4.01,2.54-3.32,.96-6.59,.51-7.05,.44-2.45-.36-3.85-.77-3.94-.62-.13,.21,2.42,1.6,5.71,2.17Z"/><path class="cls-4" d="M23.8,339.73c1.78,.25,5.9,.82,12.09-.79,.65-.17,10.53-2.82,13.61-6.76,1.26-1.61,1.07-3.13-.25-3.98-.45-.29-1.98-1.28-5.19-.67-2.68,.51-6.09,2.05-6.51,3.09-.36,.91,1.66,1.19,1.74,1.2,1.46,.19,2.64-.33,3.44,0,.68,.28,.66,1,.13,1.62-1.53,1.79-7.68,3.2-8.89,3.47-6.07,1.39-10.45,.94-11.06,.88-3.26-.36-4.89-.83-5.2-.63-.44,.28,1.81,1.98,6.09,2.58Z"/><ellipse class="cls-17" cx="46.17" cy="330.38" rx="2.33" ry="1.68"/><path class="cls-4" d="M243.29,334.02c-1.37,.24-4.53,.78-7.8-.36-.34-.12-5.51-1.99-5.27-5.03,.1-1.24,1.14-2.44,2.55-3.14,.48-.24,2.12-1.06,3.95-.65,1.53,.34,2.94,1.48,2.6,2.29-.3,.71-1.85,.98-1.91,.99-1.11,.18-1.61-.2-2.36,.08-.63,.24-1.05,.8-1.06,1.28-.03,1.38,3.34,2.35,4.01,2.54,3.32,.96,6.59,.51,7.05,.44,2.45-.36,3.85-.77,3.94-.62,.13,.21-2.42,1.6-5.71,2.17Z"/><path class="cls-4" d="M238.4,338.31c-1.78,.25-5.9,.82-12.09-.79-.65-.17-10.53-2.82-13.61-6.76-1.26-1.61-1.07-3.13,.25-3.98,.45-.29,1.98-1.28,5.19-.67,2.68,.51,6.09,2.05,6.51,3.09,.36,.91-1.66,1.19-1.74,1.2-1.46,.19-2.64-.33-3.44,0-.68,.28-.66,1-.13,1.62,1.53,1.79,7.68,3.2,8.89,3.47,6.07,1.39,10.45,.94,11.06,.88,3.26-.36,4.89-.83,5.2-.63,.44,.28-1.81,1.98-6.09,2.58Z"/><ellipse class="cls-17" cx="216.03" cy="328.95" rx="2.33" ry="1.68"/><circle class="cls-18" cx="40.41" cy="364.46" r="1.83"/><circle class="cls-18" cx="55.03" cy="360.8" r="1.83"/><circle class="cls-18" cx="67.6" cy="357.12" r="1.83"/><circle class="cls-18" cx="76.44" cy="348.13" r="1.83"/><circle class="cls-18" cx="89.85" cy="348.13" r="1.83"/><circle class="cls-18" cx="100.45" cy="344.47" r="1.83"/><circle class="cls-18" cx="109.86" cy="335.53" r="1.83"/><circle class="cls-18" cx="118.34" cy="328.7" r="1.83"/><circle class="cls-18" cx="128.03" cy="322.9" r="1.83"/><circle class="cls-18" cx="145.11" cy="322.36" r="1.83"/><circle class="cls-18" cx="156.39" cy="328.7" r="1.83"/><circle class="cls-18" cx="163.53" cy="337.36" r="1.83"/><circle class="cls-18" cx="174.19" cy="344.47" r="1.83"/><circle class="cls-18" cx="187.89" cy="346.3" r="1.83"/><circle class="cls-18" cx="199.19" cy="349.96" r="1.83"/><circle class="cls-18" cx="210.4" cy="357.12" r="1.83"/><circle class="cls-18" cx="221.26" cy="360.8" r="1.83"/><circle class="cls-18" cx="225.43" cy="324.19" r="1.83"/><circle class="cls-18" cx="135.29" cy="315.64" r="1.83"/><circle class="cls-18" cx="36.28" cy="324.73" r="1.83"/><circle class="cls-18" cx="91.68" cy="295.5" r="1.83"/><circle class="cls-18" cx="167.72" cy="295.5" r="1.83"/><path class="cls-4" d="M195.67,360.46c-.33,1.37-1.09,4.53,.49,7.8,.17,.34,2.77,5.51,6.99,5.27,1.72-.1,3.4-1.14,4.37-2.55,.33-.48,1.47-2.12,.9-3.95-.47-1.53-2.06-2.94-3.19-2.6-.98,.3-1.36,1.85-1.37,1.91-.25,1.11,.28,1.61-.11,2.36-.33,.63-1.12,1.05-1.78,1.06-1.92,.03-3.27-3.35-3.53-4.01-1.33-3.32-.71-6.59-.62-7.05,.5-2.45,1.07-3.85,.86-3.94-.3-.13-2.23,2.42-3.02,5.71Z"/><path class="cls-4" d="M189.7,365.35c-.35,1.78-1.15,5.9,1.1,12.09,.23,.65,3.93,10.53,9.4,13.61,2.23,1.26,4.35,1.07,5.53-.25,.41-.45,1.78-1.98,.94-5.19-.71-2.68-2.86-6.09-4.3-6.51-1.26-.36-1.65,1.66-1.67,1.74-.26,1.46,.46,2.64,0,3.44-.39,.68-1.39,.66-2.25,.13-2.49-1.53-4.45-7.69-4.83-8.89-1.93-6.07-1.31-10.45-1.22-11.06,.5-3.26,1.16-4.89,.88-5.2-.39-.44-2.76,1.81-3.59,6.09Z"/><path class="cls-4" d="M183.98,360.28c-.64,1.25-2.13,4.14-5.46,5.59-.35,.15-5.7,2.37-8.74-.58-1.24-1.2-1.83-3.08-1.65-4.79,.06-.58,.27-2.57,1.9-3.58,1.36-.85,3.48-.88,4.12,.11,.55,.87-.18,2.28-.21,2.34-.53,1.01-1.26,1.04-1.46,1.86-.16,.69,.16,1.52,.66,1.96,1.44,1.27,4.66-.4,5.29-.73,3.18-1.65,4.84-4.53,5.07-4.94,1.22-2.18,1.7-3.61,1.92-3.55,.31,.09,.11,3.29-1.44,6.3Z"/><path class="cls-4" d="M185.31,367.88c-.9,1.58-2.98,5.22-8.73,8.44-.6,.34-9.85,5.41-16.01,4.17-2.51-.5-3.99-2.03-4.03-3.8-.01-.61-.06-2.67,2.67-4.54,2.29-1.57,6.14-2.75,7.51-2.12,1.19,.55,.17,2.33,.13,2.41-.75,1.28-2.07,1.7-2.25,2.61-.15,.77,.63,1.41,1.62,1.57,2.88,.47,8.38-2.92,9.46-3.58,5.42-3.34,7.82-7.06,8.14-7.59,1.75-2.8,2.31-4.46,2.72-4.52,.59-.08,.91,3.17-1.26,6.95Z"/><circle class="cls-17" cx="161.26" cy="374.18" r="2.33"/><circle class="cls-17" cx="203.52" cy="385.94" r="2.33"/><circle class="cls-17" cx="170.9" cy="359.16" r="2.33"/><circle class="cls-17" cx="205.61" cy="367.47" r="2.33"/><path class="cls-4" d="M80.17,360.02c.54,1.3,1.78,4.3,4.98,6.02,.33,.18,5.48,2.83,8.75,.15,1.34-1.09,2.08-2.92,2.04-4.63-.01-.59-.06-2.58-1.59-3.73-1.28-.96-3.4-1.17-4.11-.23-.62,.82-.01,2.29,.01,2.35,.45,1.05,1.17,1.14,1.3,1.97,.11,.7-.29,1.51-.82,1.9-1.54,1.15-4.61-.78-5.21-1.16-3.03-1.91-4.45-4.91-4.64-5.34-1.04-2.27-1.4-3.74-1.62-3.69-.32,.07-.38,3.27,.91,6.4Z"/><path class="cls-4" d="M78.21,367.48c.77,1.65,2.54,5.45,8,9.13,.57,.38,9.36,6.21,15.61,5.48,2.55-.3,4.15-1.69,4.33-3.45,.06-.6,.28-2.65-2.29-4.75-2.15-1.75-5.89-3.25-7.3-2.74-1.23,.45-.37,2.31-.33,2.39,.64,1.33,1.92,1.87,2.02,2.78,.08,.78-.74,1.35-1.75,1.43-2.91,.23-8.11-3.6-9.13-4.35-5.13-3.78-7.21-7.69-7.49-8.24-1.51-2.93-1.93-4.64-2.34-4.73-.58-.13-1.17,3.08,.68,7.03Z"/><path class="cls-4" d="M70.6,366.75c.21,1.39,.71,4.6-1.14,7.73-.19,.33-3.22,5.27-7.41,4.67-1.71-.24-3.29-1.42-4.15-2.9-.29-.51-1.29-2.24-.57-4.01,.6-1.49,2.3-2.76,3.4-2.33,.96,.38,1.2,1.95,1.21,2.02,.16,1.13-.41,1.58-.09,2.36,.28,.66,1.03,1.14,1.69,1.2,1.91,.18,3.53-3.06,3.85-3.7,1.6-3.2,1.25-6.51,1.2-6.97-.29-2.48-.75-3.92-.53-4,.31-.11,2.02,2.6,2.54,5.94Z"/><path class="cls-4" d="M76.15,372.11c.2,1.81,.65,5.97-2.1,11.96-.29,.62-4.78,10.17-10.49,12.79-2.33,1.07-4.42,.71-5.49-.7-.37-.48-1.61-2.12-.51-5.25,.93-2.61,3.35-5.84,4.82-6.13,1.29-.26,1.51,1.79,1.52,1.87,.14,1.47-.67,2.6-.28,3.43,.33,.71,1.33,.77,2.24,.31,2.61-1.32,5.07-7.29,5.55-8.46,2.42-5.89,2.17-10.31,2.13-10.93-.23-3.29-.75-4.97-.45-5.26,.43-.41,2.6,2.03,3.07,6.36Z"/><circle class="cls-17" cx="60.4" cy="391.34" r="2.33"/><circle class="cls-17" cx="101.49" cy="376.02" r="2.33"/><circle class="cls-17" cx="59.37" cy="373.53" r="2.33"/><circle class="cls-17" cx="92.33" cy="359.85" r="2.33"/><path class="cls-4" d="M125.57,338.37c-.65,.72-2.16,2.38-4.64,2.75-.26,.04-4.22,.57-5.73-1.94-.61-1.02-.67-2.38-.25-3.49,.15-.38,.64-1.66,1.9-2.05,1.06-.32,2.48,.03,2.73,.81,.21,.68-.52,1.49-.56,1.53-.53,.58-1.03,.47-1.3,.98-.23,.43-.16,1.05,.09,1.43,.73,1.1,3.18,.56,3.66,.46,2.41-.53,4.03-2.16,4.26-2.39,1.2-1.24,1.78-2.11,1.91-2.02,.19,.12-.51,2.22-2.08,3.94Z"/><path class="cls-4" d="M125.11,343.68c-.88,.89-2.92,2.95-7.32,4.08-.46,.12-7.53,1.86-11.42-.06-1.59-.78-2.3-2.06-2.01-3.25,.1-.41,.44-1.79,2.59-2.55,1.8-.64,4.59-.74,5.38-.08,.7,.58-.3,1.59-.34,1.63-.73,.72-1.69,.77-1.96,1.34-.23,.49,.17,1.05,.81,1.33,1.84,.83,6.11-.46,6.95-.71,4.21-1.26,6.47-3.32,6.78-3.61,1.66-1.56,2.34-2.57,2.62-2.53,.41,.05,.04,2.28-2.08,4.41Z"/><path class="cls-4" d="M144.31,338.37c.65,.72,2.16,2.38,4.64,2.75,.26,.04,4.22,.57,5.73-1.94,.61-1.02,.67-2.38,.25-3.49-.15-.38-.64-1.66-1.9-2.05-1.06-.32-2.48,.03-2.73,.81-.21,.68,.52,1.49,.56,1.53,.53,.58,1.03,.47,1.3,.98,.23,.43,.16,1.05-.09,1.43-.73,1.1-3.18,.56-3.66,.46-2.41-.53-4.03-2.16-4.26-2.39-1.2-1.24-1.78-2.11-1.91-2.02-.19,.12,.51,2.22,2.08,3.94Z"/><path class="cls-4" d="M144.78,343.68c.88,.89,2.92,2.95,7.32,4.08,.46,.12,7.53,1.86,11.42-.06,1.59-.78,2.3-2.06,2.01-3.25-.1-.41-.44-1.79-2.59-2.55-1.8-.64-4.59-.74-5.38-.08-.7,.58,.3,1.59,.34,1.63,.73,.72,1.69,.77,1.96,1.34,.23,.49-.17,1.05-.81,1.33-1.84,.83-6.11-.46-6.95-.71-4.21-1.26-6.47-3.32-6.78-3.61-1.66-1.56-2.34-2.57-2.62-2.53-.41,.05-.04,2.28,2.08,4.41Z"/><circle class="cls-17" cx="162.17" cy="343.93" r="1.61"/><circle class="cls-17" cx="108.13" cy="343.52" r="1.61"/><path class="cls-16" d="M128.53,357.49c-1,1.25-3.32,4.13-8.47,5.56-.54,.15-8.81,2.34-13.47-.62-1.9-1.21-2.8-3.09-2.51-4.8,.1-.58,.44-2.57,2.95-3.57,2.1-.84,5.38-.86,6.35,.13,.84,.87-.29,2.28-.34,2.34-.83,1-1.96,1.03-2.26,1.85-.26,.69,.24,1.53,1,1.97,2.2,1.28,7.19-.38,8.17-.7,4.92-1.63,7.5-4.5,7.85-4.91,1.9-2.17,2.65-3.6,2.99-3.54,.48,.1,.14,3.29-2.27,6.29Z"/><path class="cls-16" d="M138.22,357.18c1.19,1.18,3.92,3.9,9.26,5,.56,.11,9.12,1.77,13.32-1.46,1.71-1.32,2.32-3.25,1.78-4.93-.19-.57-.82-2.53-3.47-3.37-2.22-.71-5.48-.52-6.3,.53-.71,.92,.63,2.25,.69,2.31,.97,.95,2.1,.91,2.53,1.7,.36,.67-.01,1.53-.7,2.02-2,1.41-7.21,.08-8.24-.18-5.14-1.32-8.14-4.01-8.55-4.39-2.22-2.04-3.18-3.42-3.5-3.33-.46,.12,.35,3.29,3.2,6.12Z"/><path class="cls-4" d="M199.65,410.87c-.41-.51,3.92-2.68,6.21-8.19,1.64-3.93,1.04-6.69,3.39-8.19,1.35-.86,3.43-1.16,4.24-.28,1.49,1.63-1.57,7.17-4.8,10.73-3.81,4.2-8.61,6.47-9.04,5.93Z"/><path class="cls-4" d="M63.41,415.25c.41-.51-3.92-2.68-6.21-8.19-1.64-3.93-1.04-6.69-3.39-8.19-1.35-.86-3.43-1.16-4.24-.28-1.49,1.63,1.57,7.17,4.8,10.73,3.81,4.2,8.61,6.47,9.04,5.93Z"/><path class="cls-4" d="M102.86,402.66c2.32-.59,7.68-1.95,14.45-8.16,.71-.65,11.47-10.68,13.21-19.02,.71-3.4-.31-5.85-2.37-6.54-.7-.23-3.1-1.03-6.73,1.8-3.03,2.37-6.42,6.88-6.39,8.86,.03,1.72,2.65,1.06,2.77,1.03,1.89-.5,3.08-2.04,4.23-1.94,.98,.09,1.33,1.31,1,2.65-.95,3.87-7.78,9.7-9.12,10.85-6.74,5.75-12.36,7.49-13.14,7.72-4.2,1.24-6.44,1.36-6.72,1.87-.4,.73,3.25,2.3,8.83,.89Z"/><circle class="cls-17" cx="125.28" cy="376.06" r="2.33"/><path class="cls-4" d="M164.24,400.32c-2.32-.59-7.68-1.95-14.45-8.16-.71-.65-11.47-10.68-13.21-19.02-.71-3.4,.31-5.85,2.37-6.54,.7-.23,3.1-1.03,6.73,1.8,3.03,2.37,6.42,6.88,6.39,8.86-.03,1.72-2.65,1.06-2.77,1.03-1.89-.5-3.08-2.04-4.23-1.94-.98,.09-1.33,1.31-1,2.65,.95,3.87,7.78,9.7,9.12,10.85,6.74,5.75,12.36,7.49,13.14,7.72,4.2,1.24,6.44,1.36,6.72,1.87,.4,.73-3.25,2.3-8.83,.89Z"/><circle class="cls-17" cx="141.82" cy="373.73" r="2.33"/><circle class="cls-18" cx="213.69" cy="372.64" r="1.83"/><circle class="cls-18" cx="213.98" cy="389" r="1.83"/><circle class="cls-18" cx="209.31" cy="408.52" r="1.83"/><circle class="cls-18" cx="196.28" cy="418.65" r="1.83"/><circle class="cls-18" cx="175.06" cy="424.86" r="1.83"/><circle class="cls-18" cx="153.07" cy="429.41" r="1.83"/><circle class="cls-18" cx="110.54" cy="430.93" r="1.83"/><circle class="cls-18" cx="72.78" cy="420.48" r="1.83"/><circle class="cls-18" cx="47.35" cy="394.7" r="1.83"/><circle class="cls-18" cx="46.17" cy="376.51" r="1.83"/><circle class="cls-18" cx="81.89" cy="382.16" r="1.83"/><circle class="cls-18" cx="76.31" cy="392.87" r="1.83"/><circle class="cls-18" cx="95.27" cy="385.46" r="1.83"/><circle class="cls-18" cx="184.19" cy="378.34" r="1.83"/><circle class="cls-18" cx="173.23" cy="382.16" r="1.83"/><circle class="cls-18" cx="189.27" cy="389" r="1.83"/><circle class="cls-18" cx="133.55" cy="383.99" r="1.83"/><circle class="cls-18" cx="141.82" cy="389.51" r="1.83"/><circle class="cls-18" cx="126.2" cy="389.51" r="1.83"/><circle class="cls-18" cx="120.6" cy="395.5" r="1.83"/><circle class="cls-18" cx="112.87" cy="400.89" r="1.83"/><circle class="cls-18" cx="148.7" cy="395.5" r="1.83"/><circle class="cls-18" cx="155.2" cy="400.89" r="1.83"/></svg>